<svg xmlns="http://www.w3.org/2000/svg" xmlns:xlink="http://www.w3.org/1999/xlink" xmlns:lucid="lucid" width="2082" height="522"><g transform="translate(321 321)" lucid:page-tab-id="0_0"><path d="M-500-500h2500V500H-500z" fill="#fff"/><path d="M-320-314a6 6 0 0 1 6-6h2068a6 6 0 0 1 6 6v508a6 6 0 0 1-6 6H-314a6 6 0 0 1-6-6z" stroke="#000" stroke-opacity="0" stroke-width="2" fill="#fff"/><path d="M1160-154a6 6 0 0 1 6-6h228a6 6 0 0 1 6 6V74a6 6 0 0 1-6 6h-228a6 6 0 0 1-6-6z" stroke="#000" fill="#fff"/><use xlink:href="#a" transform="matrix(1,0,0,1,1165,-155) translate(59.00390625 121.94010416666667)"/><use xlink:href="#b" transform="matrix(1,0,0,1,1165,-155) translate(154.17317708333331 121.94010416666667)"/><path d="M40-154a6 6 0 0 1 6-6h228a6 6 0 0 1 6 6V74a6 6 0 0 1-6 6H46a6 6 0 0 1-6-6z" stroke="#000" fill="#fff"/><use xlink:href="#a" transform="matrix(1,0,0,1,45,-155) translate(58.977864583333336 121.94010416666667)"/><use xlink:href="#c" transform="matrix(1,0,0,1,45,-155) translate(154.14713541666666 121.94010416666667)"/><path d="M600-154a6 6 0 0 1 6-6h228a6 6 0 0 1 6 6V74a6 6 0 0 1-6 6H606a6 6 0 0 1-6-6z" stroke="#000" fill="#fff"/><use xlink:href="#a" transform="matrix(1,0,0,1,605,-155) translate(58.77604166666667 121.94010416666667)"/><use xlink:href="#d" transform="matrix(1,0,0,1,605,-155) translate(153.9453125 121.94010416666667)"/><path d="M320-120h240v40H320z" stroke="#000" fill="#fff"/><use xlink:href="#e" transform="matrix(1,0,0,1,320,-120) translate(109.61588541666667 31.002604166666668)"/><path d="M320 0h240v40H320z" stroke="#000" fill="#fff"/><use xlink:href="#e" transform="matrix(1,0,0,1,320,0) translate(109.61588541666667 31.002604166666668)"/><path d="M880-120h240v40H880z" stroke="#000" fill="#fff"/><use xlink:href="#e" transform="matrix(1,0,0,1,880,-120) translate(109.61588541666667 31.002604166666668)"/><path d="M880 0h240v40H880z" stroke="#000" fill="#fff"/><use xlink:href="#e" transform="matrix(1,0,0,1,880,0) translate(109.61588541666667 31.002604166666668)"/><path d="M282-100h16.88" stroke="#3a414a" stroke-width="3" fill="none"/><path d="M282.04-98.53h-1.54v-2.94h1.54z" stroke="#3a414a" stroke-width=".05" fill="#3a414a"/><path d="M314.65-100l-14.27 4.64v-9.28z" stroke="#3a414a" stroke-width="3" fill="#3a414a"/><path d="M842-100h16.88" stroke="#3a414a" stroke-width="3" fill="none"/><path d="M842.04-98.53h-1.54v-2.94h1.54z" stroke="#3a414a" stroke-width=".05" fill="#3a414a"/><path d="M874.65-100l-14.27 4.64v-9.28z" stroke="#3a414a" stroke-width="3" fill="#3a414a"/><path d="M562-100h16.88" stroke="#3a414a" stroke-width="3" fill="none"/><path d="M562.04-98.53h-1.54v-2.94h1.54z" stroke="#3a414a" stroke-width=".05" fill="#3a414a"/><path d="M594.64-100l-14.26 4.64v-9.28z" stroke="#3a414a" stroke-width="3" fill="#3a414a"/><path d="M1122-100h16.88" stroke="#3a414a" stroke-width="3" fill="none"/><path d="M1122.04-98.53h-1.54v-2.94h1.54z" stroke="#3a414a" stroke-width=".05" fill="#3a414a"/><path d="M1154.64-100l-14.26 4.64v-9.28z" stroke="#3a414a" stroke-width="3" fill="#3a414a"/><path d="M318 20h-4.22m-8.44 0h-4.22" stroke="#3a414a" stroke-width="3" fill="none"/><path d="M319.5 21.48h-1.54v-2.96h1.54z" stroke="#3a414a" stroke-width=".05" fill="#3a414a"/><path d="M285.36 20l14.26-4.63v9.27z" stroke="#3a414a" stroke-width="3" fill="#3a414a"/><path d="M598 20h-4.22m-8.44 0h-4.22" stroke="#3a414a" stroke-width="3" fill="none"/><path d="M599.5 21.48h-1.54v-2.96h1.54z" stroke="#3a414a" stroke-width=".05" fill="#3a414a"/><path d="M565.35 20l14.27-4.63v9.27z" stroke="#3a414a" stroke-width="3" fill="#3a414a"/><path d="M1158 20h-4.22m-8.44 0h-4.22" stroke="#3a414a" stroke-width="3" fill="none"/><path d="M1159.5 21.48h-1.54v-2.96h1.54z" stroke="#3a414a" stroke-width=".05" fill="#3a414a"/><path d="M1125.36 20l14.26-4.63v9.27z" stroke="#3a414a" stroke-width="3" fill="#3a414a"/><path d="M878 20h-4.22m-8.44 0h-4.22" stroke="#3a414a" stroke-width="3" fill="none"/><path d="M879.5 21.48h-1.54v-2.96h1.54z" stroke="#3a414a" stroke-width=".05" fill="#3a414a"/><path d="M845.35 20l14.27-4.63v9.27z" stroke="#3a414a" stroke-width="3" fill="#3a414a"/><defs><path d="M584-1331c-162 0-287 69-287 219 0 118 43 164 123 214 44 28 112 56 203 89 153 55 259 113 317 176s86 144 86 244c-1 276-228 409-520 409-173 0-307-22-400-67v-164c109 46 257 81 406 82 199 1 342-68 342-244 0-120-47-164-132-214-47-28-121-58-218-93-136-49-234-106-292-173s-87-154-87-261c-1-239 209-369 463-369 145 0 279 27 401 80l-53 148c-121-51-238-76-352-76" id="f"/><path d="M995-51C878-2 799 19 639 20c-329 2-524-221-524-559 0-326 172-577 481-577 278 0 451 210 446 493v105H287c4 242 121 392 358 393 118 0 235-25 350-74v148zM864-653c2-195-85-324-270-324-190 0-288 139-303 324h573" id="g"/><path d="M340-893c80-153 237-262 467-211l-23 154c-45-10-85-15-120-15-184-3-322 182-322 377V0H176v-1096h137l19 203h8" id="h"/><path d="M516-150c94-315 146-423 332-946h178L610 0H416L0-1096h178c98 281 253 670 330 946h8" id="i"/><path d="M342 0H176v-1096h166V0zm-82-1282c-61 0-98-43-98-111 0-69 36-110 98-110 59 0 98 43 98 110s-39 111-98 111" id="j"/><path d="M287-543c-1 247 91 418 323 418 91 0 185-20 281-59v147C818 1 725 20 614 20c-329 0-499-221-499-561 0-349 172-575 510-575 96 0 221 26 282 57l-51 141c-61-25-157-50-235-51-223 0-334 142-334 426" id="k"/><g id="a"><use transform="matrix(0.013020833333333334,0,0,0.013020833333333334,0,0)" xlink:href="#f"/><use transform="matrix(0.013020833333333334,0,0,0.013020833333333334,14.635416666666668,0)" xlink:href="#g"/><use transform="matrix(0.013020833333333334,0,0,0.013020833333333334,29.596354166666668,0)" xlink:href="#h"/><use transform="matrix(0.013020833333333334,0,0,0.013020833333333334,40.481770833333336,0)" xlink:href="#i"/><use transform="matrix(0.013020833333333334,0,0,0.013020833333333334,53.841145833333336,0)" xlink:href="#j"/><use transform="matrix(0.013020833333333334,0,0,0.013020833333333334,60.5859375,0)" xlink:href="#k"/><use transform="matrix(0.013020833333333334,0,0,0.013020833333333334,73.28125,0)" xlink:href="#g"/></g><path d="M125-733c6-459 248-750 704-750 153 0 287 28 402 84l-72 146c-111-52-221-78-332-78-334-1-520 251-520 600 0 361 171 600 518 600 102 0 218-18 349-55v149C1073 1 948 20 799 20c-445 1-680-294-674-753" id="l"/><use transform="matrix(0.013020833333333334,0,0,0.013020833333333334,0,0)" xlink:href="#l" id="b"/><path d="M1120 0L938-465H352L172 0H0l578-1468h143L1296 0h-176zM885-618c-81-228-168-420-238-664-57 230-159 449-235 664h473" id="m"/><use transform="matrix(0.013020833333333334,0,0,0.013020833333333334,0,0)" xlink:href="#m" id="c"/><path d="M1214-416C1213-138 1004 0 711 0H201v-1462h413c194 0 334 29 421 87s130 150 130 275c0 188-114 295-284 324v10c222 38 333 155 333 350zm-225-667c0-194-147-232-368-232H371v479h280c219-3 338-46 338-247zm43 655c0-204-147-264-370-264H371v547h305c220-1 356-73 356-283" id="n"/><use transform="matrix(0.013020833333333334,0,0,0.013020833333333334,0,0)" xlink:href="#n" id="d"/><path d="M801-1485c433 0 669 306 669 752 0 368-156 632-432 719l348 362h-247L854 18C372 45 125-259 125-735c0-456 232-750 676-750zm0 152c-345 0-496 236-496 600 0 367 148 604 494 604 348 0 491-235 491-604 0-366-143-600-489-600" id="o"/><use transform="matrix(0.013020833333333334,0,0,0.013020833333333334,0,0)" xlink:href="#o" id="e"/></defs></g></svg>