<svg xmlns="http://www.w3.org/2000/svg" xmlns:xlink="http://www.w3.org/1999/xlink" xmlns:lucid="lucid" width="2082" height="962"><g transform="translate(301 281)" lucid:page-tab-id="0_0"><path d="M-500-500h2500v1500H-500z" fill="#fff"/><path d="M-300-274a6 6 0 0 1 6-6h2068a6 6 0 0 1 6 6v948a6 6 0 0 1-6 6H-294a6 6 0 0 1-6-6z" stroke="#000" stroke-opacity="0" stroke-width="2" fill="#fff"/><path d="M120 326a6 6 0 0 1 6-6h1228a6 6 0 0 1 6 6v308a6 6 0 0 1-6 6H126a6 6 0 0 1-6-6z" fill-opacity="0"/><path d="M137.96 320h7.97m7.98 0h7.98m7.98 0h7.97m7.97 0h7.98m7.97 0h7.98m7.97 0h7.98m7.97 0h7.97m7.98 0h7.97m7.98 0h7.97m7.97 0h7.97m7.97 0h7.98m7.97 0h7.96m7.98 0h7.97m8 0h7.96m7.97 0h7.98m7.98 0h7.98m7.97 0h7.97m7.98 0h7.97m7.98 0H433m7.97 0h7.98m7.97 0h7.98m7.97 0h7.97m7.98 0h7.97m7.97 0h7.97m7.97 0h8m7.96 0h7.98m7.97 0h7.98m7.98 0h7.97m7.98 0h7.98m7.98 0h7.97m7.97 0h7.98m7.97 0h7.98m7.97 0h7.97m7.98 0h7.97m7.98 0h7.97m7.97 0h7.98m7.97 0h7.97m7.97 0H736m8 0h7.96m7.97 0h7.98m7.98 0h7.98m7.97 0h7.97m7.98 0h7.97m7.98 0h7.97m7.97 0h7.98m7.97 0h7.98m7.97 0h7.97m7.98 0h7.97m7.97 0h7.97m7.98 0h7.97m7.96 0h7.98m7.97 0h8m7.96 0h7.97m7.98 0h7.98m7.98 0h7.97m7.97 0h7.98m7.97 0h7.98m7.97 0h7.97m7.98 0h7.97m7.98 0h7.97m7.97 0h7.98m7.97 0h7.97m7.97 0h7.97m8 0h7.96m7.98 0h7.97m7.98 0h7.98m7.97 0h7.98m7.98 0h7.97m7.98 0h7.97m7.98 0h7.97m7.98 0h7.97m7.97 0h7.98m7.97 0h7.97m7.97 0h7.97m7.98 0h7.97m7.97 0h7.97m7.97 0h4l.94.07.9.22.88.35.8.5.72.6.6.72.5.8.37.88.23.9.07.95v4.05m0 8.1v8.1m0 8.12v8.1m0 8.1v8.1m0 8.12v8.1m0 8.1v8.1m0 8.1v8.12m0 8.1v8.1m0 8.1v8.12m0 8.1v8.1m0 8.1v8.12m0 8.1v8.1m0 8.1v8.12m0 8.1v8.1m0 8.12v8.1m0 8.1v8.1m0 8.12v8.1m0 8.1v8.1m0 8.12v8.1m0 8.1V634l-.07.94-.22.9-.35.88-.5.8-.6.72-.72.6-.8.5-.88.37-.9.23-.95.07h-4m-7.96 0h-7.97m-7.98 0h-7.98m-7.98 0h-7.97m-7.98 0h-7.98m-7.97 0h-7.98m-7.97 0h-7.97m-7.98 0h-7.97m-7.98 0h-7.97m-7.98 0h-7.97m-7.97 0h-7.97m-7.97 0h-7.98m-7.97 0h-7.96m-7.98 0h-7.97m-8 0h-7.96m-7.97 0h-7.98m-7.98 0h-7.98m-7.97 0h-7.97m-7.98 0h-7.97m-7.98 0H1047m-7.97 0h-7.98m-7.97 0h-7.98m-7.97 0h-7.97m-7.98 0h-7.97m-7.97 0h-7.97m-7.97 0h-8m-7.96 0h-7.98m-7.97 0h-7.98m-7.98 0h-7.97m-7.98 0h-7.98m-7.98 0h-7.97m-7.97 0h-7.98m-7.97 0h-7.98m-7.97 0h-7.97m-7.98 0h-7.97m-7.98 0h-7.97m-7.97 0h-7.98m-7.97 0h-7.97m-7.97 0H744m-8 0h-7.96m-7.97 0h-7.98m-7.98 0h-7.98m-7.97 0h-7.97m-7.98 0h-7.97m-7.98 0h-7.97m-7.97 0h-7.98m-7.97 0h-7.98m-7.97 0h-7.97m-7.98 0h-7.97m-7.97 0h-7.97m-7.98 0h-7.97m-7.96 0h-7.98m-7.97 0h-8m-7.96 0h-7.97m-7.98 0h-7.98m-7.98 0h-7.97m-7.97 0h-7.98m-7.97 0h-7.98m-7.97 0h-7.97m-7.98 0h-7.97m-7.98 0h-7.97m-7.97 0h-7.98m-7.97 0h-7.97m-7.97 0h-7.97m-8 0h-7.96m-7.98 0h-7.97m-7.98 0h-7.98m-7.97 0h-7.98m-7.98 0h-7.97m-7.98 0h-7.97m-7.98 0h-7.97m-7.97 0h-7.98m-7.97 0h-7.98m-7.97 0h-7.97m-7.97 0h-7.97m-7.98 0h-7.97m-7.97 0h-7.97m-7.97 0h-4l-.94-.07-.9-.22-.88-.35-.8-.5-.72-.6-.6-.72-.5-.8-.37-.88-.23-.9-.07-.95v-4.05m0-8.1v-8.1m0-8.12v-8.1m0-8.1v-8.1m0-8.12v-8.1m0-8.1v-8.1m0-8.1v-8.12m0-8.1v-8.1m0-8.1v-8.12m0-8.1v-8.1m0-8.1v-8.12m0-8.1v-8.1m0-8.1v-8.12m0-8.1v-8.1m0-8.12V403m0-8.1v-8.1m0-8.12v-8.1m0-8.1v-8.1m0-8.12v-8.1m0-8.1V326l.07-.94.22-.9.35-.88.5-.8.6-.72.72-.6.8-.5.88-.37.9-.23.95-.07h4" stroke="#3a414a" stroke-width="2" fill="none"/><path d="M1000-234a6 6 0 0 1 6-6h348a6 6 0 0 1 6 6v388a6 6 0 0 1-6 6h-348a6 6 0 0 1-6-6z" fill-opacity="0"/><path d="M1017.86-240h7.9m7.92 0h7.9m7.92 0h7.9m7.92 0h7.9m7.92 0h7.9m7.9 0h7.92m7.9 0h7.92m7.9 0h7.92m7.9 0h7.92m7.9 0h7.92m7.9 0h7.9m7.92 0h7.9m7.92 0h7.9m7.92 0h7.9m7.92 0h7.9m7.92 0h7.9m7.9 0h7.92m7.9 0h7.92m7.9 0h7.92m7.9 0h7.92m7.9 0h7.92m7.9 0h3.96l.94.07.9.22.88.35.8.5.72.6.6.72.5.8.37.88.23.9.07.95v4.04m0 8.1v8.07m0 8.1v8.07m0 8.1v8.07m0 8.1v8.07m0 8.1v8.07m0 8.1v8.07m0 8.1v8.07m0 8.1v8.08m0 8.08v8.08m0 8.08v8.1m0 8.07v8.08m0 8.08v8.08m0 8.1v8.07m0 8.1v8.07m0 8.1v8.07m0 8.1v8.07m0 8.1v8.08m0 8.08v8.08m0 8.1v8.07m0 8.1v8.08m0 8.08v8.08m0 8.08v8.1m0 8.07v8.07m0 8.1V154l-.07.94-.22.9-.35.88-.5.8-.6.72-.72.6-.8.5-.88.37-.9.23-.95.07h-3.95m-7.9 0h-7.92m-7.9 0h-7.92m-7.9 0h-7.9m-7.92 0h-7.9m-7.92 0h-7.9m-7.9 0h-7.92m-7.9 0h-7.92m-7.9 0h-7.92m-7.9 0h-7.92m-7.9 0h-7.92m-7.9 0h-7.9m-7.92 0h-7.9m-7.92 0h-7.9m-7.92 0h-7.9m-7.92 0h-7.9m-7.92 0h-7.9m-7.9 0h-7.92m-7.9 0h-7.92m-7.9 0h-7.92m-7.9 0h-7.92m-7.9 0h-7.92m-7.9 0H1006l-.94-.07-.9-.22-.88-.35-.8-.5-.72-.6-.6-.72-.5-.8-.37-.88-.23-.9-.07-.95v-4.04m0-8.1v-8.07m0-8.1v-8.08m0-8.08v-8.08m0-8.08v-8.1m0-8.07v-8.08m0-8.08v-8.08m0-8.1V36.8m0-8.1v-8.07m0-8.1V4.47m0-8.1v-8.07m0-8.1v-8.07m0-8.1v-8.07m0-8.1v-8.07m0-8.1v-8.08m0-8.08v-8.08m0-8.08v-8.1m0-8.07v-8.08m0-8.08v-8.08m0-8.1v-8.07m0-8.1v-8.07m0-8.1v-8.07m0-8.1v-8.07m0-8.1v-8.07m0-8.1V-234l.07-.94.22-.9.35-.88.5-.8.6-.72.72-.6.8-.5.88-.37.9-.23.95-.07h3.96" stroke="#3a414a" stroke-width="2" fill="none"/><use xlink:href="#a" transform="matrix(1,0,0,1,1005,-235) translate(65.24088541666666 38.50260416666667)"/><use xlink:href="#b" transform="matrix(1,0,0,1,1005,-235) translate(160.41015625 38.50260416666667)"/><use xlink:href="#c" transform="matrix(1,0,0,1,1005,-235) translate(210.98307291666666 38.50260416666667)"/><path d="M120-234a6 6 0 0 1 6-6h348a6 6 0 0 1 6 6v388a6 6 0 0 1-6 6H126a6 6 0 0 1-6-6z" fill-opacity="0"/><path d="M137.86-240h7.9m7.92 0h7.9m7.92 0h7.9m7.92 0h7.9m7.92 0h7.9m7.92 0h7.9m7.9 0h7.92m7.9 0h7.92m7.9 0h7.92m7.9 0h7.92m7.9 0h7.9m7.92 0h7.9m7.92 0h7.9m7.92 0h7.9m7.92 0h7.9m7.92 0h7.9m7.9 0h7.92m7.9 0h7.92m7.9 0h7.92m7.9 0h7.92m7.9 0h7.92m7.9 0H474l.94.07.9.22.88.35.8.5.72.6.6.72.5.8.37.88.23.9.07.95v4.04m0 8.1v8.07m0 8.1v8.07m0 8.1v8.07m0 8.1v8.07m0 8.1v8.07m0 8.1v8.07m0 8.1v8.07m0 8.1v8.08m0 8.08v8.08m0 8.08v8.1m0 8.07v8.08m0 8.08v8.08m0 8.1v8.07m0 8.1v8.07m0 8.1v8.07m0 8.1v8.07m0 8.1v8.08m0 8.08v8.08m0 8.1v8.07m0 8.1v8.08m0 8.08v8.08m0 8.08v8.1m0 8.07v8.07m0 8.1V154l-.07.94-.22.9-.35.88-.5.8-.6.72-.72.6-.8.5-.88.37-.9.23-.95.07h-3.95m-7.9 0h-7.92m-7.9 0h-7.92m-7.9 0h-7.9m-7.92 0h-7.9m-7.92 0h-7.9m-7.9 0h-7.92m-7.9 0h-7.92m-7.9 0h-7.92m-7.9 0h-7.92m-7.9 0h-7.92m-7.9 0h-7.9m-7.92 0h-7.9m-7.92 0h-7.9m-7.92 0h-7.9m-7.92 0h-7.9m-7.92 0h-7.9m-7.92 0h-7.9m-7.9 0h-7.92m-7.9 0h-7.92m-7.9 0h-7.92m-7.9 0h-7.92m-7.9 0H126l-.94-.07-.9-.22-.88-.35-.8-.5-.72-.6-.6-.72-.5-.8-.37-.88-.23-.9-.07-.95v-4.04m0-8.1v-8.07m0-8.1v-8.08m0-8.08v-8.08m0-8.08v-8.1m0-8.07v-8.08m0-8.08v-8.08m0-8.1V36.8m0-8.1v-8.07m0-8.1V4.47m0-8.1v-8.07m0-8.1v-8.07m0-8.1v-8.07m0-8.1v-8.07m0-8.1v-8.08m0-8.08v-8.08m0-8.08v-8.1m0-8.07v-8.08m0-8.08v-8.08m0-8.1v-8.07m0-8.1v-8.07m0-8.1v-8.07m0-8.1v-8.07m0-8.1v-8.07m0-8.1V-234l.07-.94.22-.9.35-.88.5-.8.6-.72.72-.6.8-.5.88-.37.9-.23.95-.07h3.96" stroke="#3a414a" stroke-width="2" fill="none"/><use xlink:href="#a" transform="matrix(1,0,0,1,125,-235) translate(66.43880208333331 38.50260416666667)"/><use xlink:href="#d" transform="matrix(1,0,0,1,125,-235) translate(161.60807291666663 38.50260416666667)"/><use xlink:href="#c" transform="matrix(1,0,0,1,125,-235) translate(209.78515625 38.50260416666667)"/><path d="M1080-114a6 6 0 0 1 6-6h228a6 6 0 0 1 6 6v228a6 6 0 0 1-6 6h-228a6 6 0 0 1-6-6zM200-114a6 6 0 0 1 6-6h228a6 6 0 0 1 6 6v228a6 6 0 0 1-6 6H206a6 6 0 0 1-6-6z" stroke="#3a414a" stroke-width="2" fill="#fff"/><path d="M180-134a6 6 0 0 1 6-6h228a6 6 0 0 1 6 6V94a6 6 0 0 1-6 6H186a6 6 0 0 1-6-6z" stroke="#3a414a" stroke-width="2" fill="#fff"/><path d="M560-234a6 6 0 0 1 6-6h348a6 6 0 0 1 6 6v388a6 6 0 0 1-6 6H566a6 6 0 0 1-6-6z" fill-opacity="0"/><path d="M577.86-240h7.9m7.92 0h7.9m7.92 0h7.9m7.92 0h7.9m7.92 0h7.9m7.92 0h7.9m7.9 0h7.92m7.9 0h7.92m7.9 0h7.92m7.9 0h7.92m7.9 0h7.92m7.9 0h7.9m7.92 0h7.9m7.92 0h7.9m7.92 0h7.9m7.92 0h7.9m7.92 0h7.9m7.9 0h7.92m7.9 0h7.92m7.9 0h7.92m7.9 0h7.92m7.9 0H914l.94.07.9.22.88.35.8.5.72.6.6.72.5.8.37.88.23.9.07.95v4.04m0 8.1v8.07m0 8.1v8.07m0 8.1v8.07m0 8.1v8.07m0 8.1v8.07m0 8.1v8.07m0 8.1v8.07m0 8.1v8.08m0 8.08v8.08m0 8.08v8.1m0 8.07v8.08m0 8.08v8.08m0 8.1v8.07m0 8.1v8.07m0 8.1v8.07m0 8.1v8.07m0 8.1v8.08m0 8.08v8.08m0 8.1v8.07m0 8.1v8.08m0 8.08v8.08m0 8.08v8.1m0 8.07v8.07m0 8.1V154l-.07.94-.22.9-.35.88-.5.8-.6.72-.72.6-.8.5-.88.37-.9.23-.95.07h-3.96m-7.9 0h-7.9m-7.92 0h-7.9m-7.92 0h-7.9m-7.92 0h-7.9m-7.92 0h-7.9m-7.92 0h-7.9m-7.9 0h-7.92m-7.9 0h-7.92m-7.9 0h-7.92m-7.9 0h-7.92m-7.9 0h-7.92m-7.9 0h-7.9m-7.92 0h-7.9m-7.92 0h-7.9m-7.92 0h-7.9m-7.92 0h-7.9m-7.92 0h-7.9m-7.9 0h-7.92m-7.9 0h-7.92m-7.9 0h-7.92m-7.9 0h-7.92m-7.9 0H566l-.94-.07-.9-.22-.88-.35-.8-.5-.72-.6-.6-.72-.5-.8-.37-.88-.23-.9-.07-.95v-4.04m0-8.1v-8.07m0-8.1v-8.08m0-8.08v-8.08m0-8.08v-8.1m0-8.07v-8.08m0-8.08v-8.08m0-8.1V36.8m0-8.1v-8.07m0-8.1V4.47m0-8.1v-8.07m0-8.1v-8.07m0-8.1v-8.07m0-8.1v-8.07m0-8.1v-8.08m0-8.08v-8.08m0-8.08v-8.1m0-8.07v-8.08m0-8.08v-8.08m0-8.1v-8.07m0-8.1v-8.07m0-8.1v-8.07m0-8.1v-8.07m0-8.1v-8.07m0-8.1V-234l.07-.94.22-.9.35-.88.5-.8.6-.72.72-.6.8-.5.88-.37.9-.23.95-.07h3.96" stroke="#3a414a" stroke-width="2" fill="none"/><use xlink:href="#a" transform="matrix(1,0,0,1,565,-235) translate(66.03515625 38.50260416666667)"/><use xlink:href="#e" transform="matrix(1,0,0,1,565,-235) translate(161.20442708333331 38.50260416666667)"/><use xlink:href="#c" transform="matrix(1,0,0,1,565,-235) translate(210.18880208333334 38.50260416666667)"/><path d="M160-154a6 6 0 0 1 6-6h228a6 6 0 0 1 6 6V74a6 6 0 0 1-6 6H166a6 6 0 0 1-6-6z" stroke="#3a414a" stroke-width="2" fill="#fff"/><use xlink:href="#a" transform="matrix(1,0,0,1,165,-155) translate(46.79036458333333 121.94010416666667)"/><use xlink:href="#f" transform="matrix(1,0,0,1,165,-155) translate(141.95963541666666 121.94010416666667)"/><path d="M640-114a6 6 0 0 1 6-6h228a6 6 0 0 1 6 6v228a6 6 0 0 1-6 6H646a6 6 0 0 1-6-6zM1060-134a6 6 0 0 1 6-6h228a6 6 0 0 1 6 6V94a6 6 0 0 1-6 6h-228a6 6 0 0 1-6-6z" stroke="#3a414a" stroke-width="2" fill="#fff"/><path d="M197.63 162v138.5" stroke="#3a414a" stroke-width="2" fill="none"/><path d="M198.6 162.03h-1.95V161h1.95z" stroke="#3a414a" stroke-width=".05" fill="#3a414a"/><path d="M197.63 315.76L193 301.5h9.26z" stroke="#3a414a" stroke-width="2" fill="#3a414a"/><path d="M160 366a6 6 0 0 1 6-6h428a6 6 0 0 1 6 6v228a6 6 0 0 1-6 6H166a6 6 0 0 1-6-6z" stroke="#000" stroke-width="2" fill="#fff"/><use xlink:href="#g" transform="matrix(1,0,0,1,165,365) translate(95.62500000000001 64.44010416666667)"/><use xlink:href="#h" transform="matrix(1,0,0,1,165,365) translate(226.640625 64.44010416666667)"/><use xlink:href="#i" transform="matrix(1,0,0,1,165,365) translate(319.1536458333333 64.44010416666667)"/><use xlink:href="#j" transform="matrix(1,0,0,1,165,365) translate(215 100.75520833333334)"/><use xlink:href="#k" transform="matrix(1,0,0,1,165,365) translate(98.28993055555556 132.31987847222223)"/><use xlink:href="#l" transform="matrix(1,0,0,1,165,365) translate(186.59288194444446 132.31987847222223)"/><use xlink:href="#m" transform="matrix(1,0,0,1,165,365) translate(277.15277777777777 132.31987847222223)"/><use xlink:href="#n" transform="matrix(1,0,0,1,165,365) translate(208.64691840277777 162.5824652777778)"/><use xlink:href="#o" transform="matrix(1,0,0,1,165,365) translate(88.35069444444446 192.84505208333334)"/><use xlink:href="#p" transform="matrix(1,0,0,1,165,365) translate(174.14713541666669 192.84505208333334)"/><use xlink:href="#q" transform="matrix(1,0,0,1,165,365) translate(225.05859375 192.84505208333334)"/><path d="M1040-154a6 6 0 0 1 6-6h228a6 6 0 0 1 6 6V74a6 6 0 0 1-6 6h-228a6 6 0 0 1-6-6z" stroke="#3a414a" stroke-width="2" fill="#fff"/><use xlink:href="#r" transform="matrix(1,0,0,1,1045,-155) translate(23.33984374999997 107.56510416666667)"/><use xlink:href="#s" transform="matrix(1,0,0,1,1045,-155) translate(157.10286458333334 107.56510416666667)"/><use xlink:href="#t" transform="matrix(1,0,0,1,1045,-155) translate(69.36848958333333 143.88020833333334)"/><use xlink:href="#u" transform="matrix(1,0,0,1,1045,-155) translate(143.80859375 143.88020833333334)"/><path d="M362.98 318v-3.85m0-7.7v-7.7m0-7.68v-7.7m0-7.7V268m0-7.7v-7.7m0-7.7v-7.7m0-7.7v-7.68m0-7.7v-7.7m0-7.68v-7.7m0-7.7v-3.84" stroke="#3a414a" stroke-width="2" fill="none"/><path d="M363.95 319H362v-1.03h1.95z" stroke="#3a414a" stroke-width=".05" fill="#3a414a"/><path d="M362.98 164.24l4.63 14.26h-9.25z" stroke="#3a414a" stroke-width="2" fill="#3a414a"/><path d="M620-134a6 6 0 0 1 6-6h228a6 6 0 0 1 6 6V94a6 6 0 0 1-6 6H626a6 6 0 0 1-6-6z" stroke="#3a414a" stroke-width="2" fill="#fff"/><path d="M600-154a6 6 0 0 1 6-6h228a6 6 0 0 1 6 6V74a6 6 0 0 1-6 6H606a6 6 0 0 1-6-6z" stroke="#3a414a" stroke-width="2" fill="#fff"/><g><use xlink:href="#a" transform="matrix(1,0,0,1,605,-155) translate(46.38671875 121.94010416666667)"/><use xlink:href="#v" transform="matrix(1,0,0,1,605,-155) translate(141.55598958333331 121.94010416666667)"/></g><path d="M640.84 162v77.95a.05.05 0 0 1-.05.05.05.05 0 0 0-.06.05v60.45" stroke="#3a414a" stroke-width="2" fill="none"/><path d="M641.82 162.03h-1.96V161h1.96z" stroke="#3a414a" stroke-width=".05" fill="#3a414a"/><path d="M640.74 315.76l-4.63-14.26h9.28z" stroke="#3a414a" stroke-width="2" fill="#3a414a"/><path d="M1079.5 300.5V162" stroke="#3a414a" stroke-width="2" fill="none"/><path d="M1079.5 315.76l-4.63-14.26h9.27z" stroke="#3a414a" stroke-width="2" fill="#3a414a"/><path d="M1080.47 162.03h-1.94V161h1.94z" stroke="#3a414a" stroke-width=".05" fill="#3a414a"/><path d="M1242.13 179.5v3.85m0 7.7v7.7m0 7.68v7.7m0 7.7v7.68m0 7.7v7.7m0 7.7v7.7m0 7.7v7.68m0 7.7v7.7m0 7.68v7.7m0 7.7V318" stroke="#3a414a" stroke-width="2" fill="none"/><path d="M1242.13 164.24l4.64 14.26h-9.27z" stroke="#3a414a" stroke-width="2" fill="#3a414a"/><path d="M1243.1 319h-1.94v-1.03h1.95z" stroke="#3a414a" stroke-width=".05" fill="#3a414a"/><path d="M801.7 318v-3.9m0-7.8v-7.8m0-7.8v-7.8m0-7.78v-7.8m0-7.8v-7.8m0-7.8v-3.9l-.02-.02h-.02l-.02-.02v-3.8m0-7.55v-7.56m0-7.56v-7.54m0-7.56v-7.56m0-7.56v-3.78" stroke="#3a414a" stroke-width="2" fill="none"/><path d="M802.68 319h-1.95v-1.03h1.95z" stroke="#3a414a" stroke-width=".05" fill="#3a414a"/><path d="M801.64 164.24l4.63 14.26H797z" stroke="#3a414a" stroke-width="2" fill="#3a414a"/><path d="M880 366a6 6 0 0 1 6-6h428a6 6 0 0 1 6 6v228a6 6 0 0 1-6 6H886a6 6 0 0 1-6-6z" stroke="#000" stroke-width="2" fill="#fff"/><g><use xlink:href="#g" transform="matrix(1,0,0,1,885,365) translate(94.47265625000001 64.44010416666667)"/><use xlink:href="#h" transform="matrix(1,0,0,1,885,365) translate(225.48828125 64.44010416666667)"/><use xlink:href="#w" transform="matrix(1,0,0,1,885,365) translate(318.0013020833333 64.44010416666667)"/><use xlink:href="#x" transform="matrix(1,0,0,1,885,365) translate(215 100.75520833333334)"/><use xlink:href="#y" transform="matrix(1,0,0,1,885,365) translate(98.28993055555556 132.31987847222223)"/><use xlink:href="#z" transform="matrix(1,0,0,1,885,365) translate(186.59288194444446 132.31987847222223)"/><use xlink:href="#A" transform="matrix(1,0,0,1,885,365) translate(277.15277777777777 132.31987847222223)"/><use xlink:href="#B" transform="matrix(1,0,0,1,885,365) translate(208.64691840277777 162.5824652777778)"/><use xlink:href="#C" transform="matrix(1,0,0,1,885,365) translate(88.35069444444446 192.84505208333334)"/><use xlink:href="#D" transform="matrix(1,0,0,1,885,365) translate(174.14713541666669 192.84505208333334)"/><use xlink:href="#E" transform="matrix(1,0,0,1,885,365) translate(225.05859375 192.84505208333334)"/></g><path d="M750 480c0 5.52-4.48 10-10 10s-10-4.48-10-10 4.48-10 10-10 10 4.48 10 10zM820 480c0 5.52-4.48 10-10 10s-10-4.48-10-10 4.48-10 10-10 10 4.48 10 10zM680 480c0 5.52-4.48 10-10 10s-10-4.48-10-10 4.48-10 10-10 10 4.48 10 10z" stroke="#3a414a" stroke-width="2" fill="#3a414a"/><defs><path d="M584-1331c-162 0-287 69-287 219 0 118 43 164 123 214 44 28 112 56 203 89 153 55 259 113 317 176s86 144 86 244c-1 276-228 409-520 409-173 0-307-22-400-67v-164c109 46 257 81 406 82 199 1 342-68 342-244 0-120-47-164-132-214-47-28-121-58-218-93-136-49-234-106-292-173s-87-154-87-261c-1-239 209-369 463-369 145 0 279 27 401 80l-53 148c-121-51-238-76-352-76" id="F"/><path d="M995-51C878-2 799 19 639 20c-329 2-524-221-524-559 0-326 172-577 481-577 278 0 451 210 446 493v105H287c4 242 121 392 358 393 118 0 235-25 350-74v148zM864-653c2-195-85-324-270-324-190 0-288 139-303 324h573" id="G"/><path d="M340-893c80-153 237-262 467-211l-23 154c-45-10-85-15-120-15-184-3-322 182-322 377V0H176v-1096h137l19 203h8" id="H"/><path d="M516-150c94-315 146-423 332-946h178L610 0H416L0-1096h178c98 281 253 670 330 946h8" id="I"/><path d="M342 0H176v-1096h166V0zm-82-1282c-61 0-98-43-98-111 0-69 36-110 98-110 59 0 98 43 98 110s-39 111-98 111" id="J"/><path d="M287-543c-1 247 91 418 323 418 91 0 185-20 281-59v147C818 1 725 20 614 20c-329 0-499-221-499-561 0-349 172-575 510-575 96 0 221 26 282 57l-51 141c-61-25-157-50-235-51-223 0-334 142-334 426" id="K"/><g id="a"><use transform="matrix(0.013020833333333334,0,0,0.013020833333333334,0,0)" xlink:href="#F"/><use transform="matrix(0.013020833333333334,0,0,0.013020833333333334,14.635416666666668,0)" xlink:href="#G"/><use transform="matrix(0.013020833333333334,0,0,0.013020833333333334,29.596354166666668,0)" xlink:href="#H"/><use transform="matrix(0.013020833333333334,0,0,0.013020833333333334,40.481770833333336,0)" xlink:href="#I"/><use transform="matrix(0.013020833333333334,0,0,0.013020833333333334,53.841145833333336,0)" xlink:href="#J"/><use transform="matrix(0.013020833333333334,0,0,0.013020833333333334,60.5859375,0)" xlink:href="#K"/><use transform="matrix(0.013020833333333334,0,0,0.013020833333333334,73.28125,0)" xlink:href="#G"/></g><path d="M686 20c-159 0-273-61-344-161h-12L295 0H176v-1556h166c-2 198 6 423-8 606h8c77-109 192-164 344-164 310 0 455 234 455 565 0 329-147 569-455 569zm283-571c0-257-72-424-307-424-256 0-320 146-320 426s68 430 324 430c228 0 303-184 303-432" id="L"/><path d="M588-1114c260 0 384 106 385 366V0H850l-33-156h-8C708-34 639 17 442 20 231 23 94-94 94-303c0-221 177-337 531-348l186-6c11-203-40-320-233-320-91 0-195 28-310 84l-51-127c97-53 229-94 371-94zM268-301c-1 123 81 184 207 184 203 0 334-120 332-323v-99c-257 14-539-7-539 238" id="M"/><path d="M877 0H82v-113l598-854H119v-129h743v129L272-129h605V0" id="N"/><g id="b"><use transform="matrix(0.013020833333333334,0,0,0.013020833333333334,0,0)" xlink:href="#L"/><use transform="matrix(0.013020833333333334,0,0,0.013020833333333334,16.341145833333336,0)" xlink:href="#M"/><use transform="matrix(0.013020833333333334,0,0,0.013020833333333334,31.171875,0)" xlink:href="#N"/></g><path d="M125-741c0-247 161-377 414-375 57 0 109 7 155 20h379v105l-203 24c37 48 72 129 72 219 0 255-227 390-504 345-71 37-106 84-106 141 0 78 66 88 164 88h194c219-1 369 87 369 293 0 121-49 213-146 277s-239 96-426 96c-250 0-448-83-448-306C39 36 147-58 283-86c-52-23-102-79-99-152 4-104 57-143 133-192-107-42-192-164-192-311zM438-25c-143-1-242 70-239 209s131 181 290 181c139 0 242-21 309-63s101-98 101-169c0-147-88-158-262-158H438zm94-970c-158 0-243 88-243 250 0 153 93 233 246 233 162 0 243-79 243-236 0-165-82-247-246-247" id="O"/><path d="M621-1116c316 0 501 239 501 567 0 339-180 575-508 569S119-212 115-549c-4-339 178-567 506-567zm-5 141c-239 0-329 168-329 426 0 255 93 430 331 430s332-174 332-430-95-426-334-426" id="P"/><path d="M563 20c-271 0-399-123-399-399v-717h168v711c1 177 76 266 252 266 250 0 331-135 331-401v-576h166V0H944l-24-147h-9C848-44 724 20 563 20" id="Q"/><path d="M1141-549c0 329-147 569-455 569-159 0-273-61-344-161h-12c23 199 7 418 12 633H176v-1588h135l23 150h8c77-108 175-170 344-170 311 0 455 237 455 567zm-172-2c0-242-88-424-307-424-256 0-323 154-320 426 3 280 68 430 324 430 213 0 303-196 303-432" id="R"/><g id="c"><use transform="matrix(0.013020833333333334,0,0,0.013020833333333334,0,0)" xlink:href="#O"/><use transform="matrix(0.013020833333333334,0,0,0.013020833333333334,14.609375,0)" xlink:href="#H"/><use transform="matrix(0.013020833333333334,0,0,0.013020833333333334,24.9609375,0)" xlink:href="#P"/><use transform="matrix(0.013020833333333334,0,0,0.013020833333333334,41.067708333333336,0)" xlink:href="#Q"/><use transform="matrix(0.013020833333333334,0,0,0.013020833333333334,57.434895833333336,0)" xlink:href="#R"/></g><path d="M575-1430c-169 0-190 146-184 334h279v129H391V0H225v-967H29v-75l196-60c-15-299 97-465 353-465 58 0 126 12 204 35l-43 133c-64-21-119-31-164-31" id="S"/><g id="d"><use transform="matrix(0.013020833333333334,0,0,0.013020833333333334,0,0)" xlink:href="#S"/><use transform="matrix(0.013020833333333334,0,0,0.013020833333333334,9.036458333333334,0)" xlink:href="#P"/><use transform="matrix(0.013020833333333334,0,0,0.013020833333333334,25.14322916666667,0)" xlink:href="#P"/></g><g id="e"><use transform="matrix(0.013020833333333334,0,0,0.013020833333333334,0,0)" xlink:href="#L"/><use transform="matrix(0.013020833333333334,0,0,0.013020833333333334,16.341145833333336,0)" xlink:href="#M"/><use transform="matrix(0.013020833333333334,0,0,0.013020833333333334,31.171875,0)" xlink:href="#H"/></g><g id="f"><use transform="matrix(0.013020833333333334,0,0,0.013020833333333334,0,0)" xlink:href="#S"/><use transform="matrix(0.013020833333333334,0,0,0.013020833333333334,9.036458333333334,0)" xlink:href="#P"/><use transform="matrix(0.013020833333333334,0,0,0.013020833333333334,25.14322916666667,0)" xlink:href="#P"/></g><path d="M881-1016c0-191-181-195-387-192v395c210 7 387-9 387-203zm313-8c0 197-121 322-272 387 220 329 363 541 430 637h-344L659-561H494V0H184v-1462h426c360 1 584 108 584 438" id="T"/><path d="M836-686c0-141-77-236-213-236-140 0-206 98-215 236h428zm223 627C946-4 838 19 666 20 308 22 92-191 92-551c0-356 187-588 529-588 314 0 504 195 501 508v148H401c5 169 104 277 279 276 158-2 261-33 379-88v236" id="U"/><path d="M836-831c-99-39-182-77-306-82-139-6-173 83-92 144 51 39 327 139 383 188 71 62 119 126 119 249C940-74 747 21 463 20 305 20 202 0 94-45v-252c93 45 253 94 379 94 111 0 166-32 166-96 0-68-41-76-98-109-79-46-276-119-333-167-74-61-116-125-116-252 0-368 555-367 836-224" id="V"/><path d="M633-893c-183 0-230 133-230 332s48 336 232 336c183 0 229-137 229-336s-47-332-231-332zm4-246c347 5 535 225 539 578S978 25 631 20C283 15 96-208 92-561c-4-355 196-583 545-578" id="W"/><path d="M795-1139c261-1 398 148 397 410V0H887v-653c-1-148-42-242-180-242-202 0-242 139-242 369V0H160v-1118h233l41 143h17c62-102 185-163 344-164" id="X"/><path d="M618-1141c286 0 465 117 465 396V0H870l-59-152h-8C704-33 632 18 432 20 216 22 86-113 86-334c0-119 44-202 124-262 109-82 356-99 570-100 11-142-39-219-174-219-89 0-194 27-315 81l-101-206c129-67 271-101 428-101zm-71 938c137 0 235-88 233-223v-92c-190 3-382 4-381 186 0 86 49 129 148 129" id="Y"/><path d="M498-350c-2 85 52 126 133 127 53 0 117-12 192-35v227C747 3 654 20 543 20c-247 0-350-124-350-370v-539H47v-129l168-102 88-236h195v238h313v229H498v539" id="Z"/><g id="g"><use transform="matrix(0.013020833333333334,0,0,0.013020833333333334,0,0)" xlink:href="#T"/><use transform="matrix(0.013020833333333334,0,0,0.013020833333333334,17.604166666666668,0)" xlink:href="#U"/><use transform="matrix(0.013020833333333334,0,0,0.013020833333333334,33.359375,0)" xlink:href="#V"/><use transform="matrix(0.013020833333333334,0,0,0.013020833333333334,46.614583333333336,0)" xlink:href="#W"/><use transform="matrix(0.013020833333333334,0,0,0.013020833333333334,63.125,0)" xlink:href="#X"/><use transform="matrix(0.013020833333333334,0,0,0.013020833333333334,80.65104166666667,0)" xlink:href="#Y"/><use transform="matrix(0.013020833333333334,0,0,0.013020833333333334,96.7578125,0)" xlink:href="#Z"/><use transform="matrix(0.013020833333333334,0,0,0.013020833333333334,108.33333333333334,0)" xlink:href="#U"/></g><path d="M596-1225c-134-8-223 103-163 219 11 21 33 41 61 60s93 53 196 102c137 65 230 130 281 196s76 147 76 242c-3 286-231 426-539 426C352 20 214-9 94-68v-288c159 68 260 115 438 120 123 3 211-41 211-155 0-73-44-105-95-141-63-46-329-160-390-220-78-77-147-167-147-315 0-273 208-420 495-416 177 2 298 46 434 103l-100 241c-131-51-199-78-344-86" id="aa"/><path d="M451-930c71-134 228-244 436-200l-23 286c-220-45-399 61-399 275V0H160v-1118h231l45 188h15" id="ab"/><path d="M426 0L0-1118h319l216 637c24 81 39 157 45 229h6c3-64 15-141 45-229l215-637h319L739 0H426" id="ac"/><g id="h"><use transform="matrix(0.013020833333333334,0,0,0.013020833333333334,0,0)" xlink:href="#aa"/><use transform="matrix(0.013020833333333334,0,0,0.013020833333333334,14.6875,0)" xlink:href="#U"/><use transform="matrix(0.013020833333333334,0,0,0.013020833333333334,30.442708333333336,0)" xlink:href="#ab"/><use transform="matrix(0.013020833333333334,0,0,0.013020833333333334,42.552083333333336,0)" xlink:href="#ac"/><use transform="matrix(0.013020833333333334,0,0,0.013020833333333334,57.72135416666667,0)" xlink:href="#U"/><use transform="matrix(0.013020833333333334,0,0,0.013020833333333334,73.4765625,0)" xlink:href="#ab"/></g><path d="M846 0H537c2-380-6-768 8-1137-108 112-167 145-275 236l-149-186 471-375h254V0" id="ad"/><use transform="matrix(0.013020833333333334,0,0,0.013020833333333334,0,0)" xlink:href="#ad" id="i"/><path d="M649-1462c450-4 719 268 719 717 0 484-276 748-762 745H201v-1462h448zM578-147c400 1 610-197 610-592 1-379-192-576-570-576H371v1168h207" id="ae"/><path d="M342 0H176v-1556h166V0" id="af"/><g id="k"><use transform="matrix(0.010850694444444444,0,0,0.010850694444444444,0,0)" xlink:href="#ae"/><use transform="matrix(0.010850694444444444,0,0,0.010850694444444444,16.200086805555554,0)" xlink:href="#Q"/><use transform="matrix(0.010850694444444444,0,0,0.010850694444444444,29.83940972222222,0)" xlink:href="#H"/><use transform="matrix(0.010850694444444444,0,0,0.010850694444444444,38.46571180555556,0)" xlink:href="#M"/><use transform="matrix(0.010850694444444444,0,0,0.010850694444444444,50.82465277777778,0)" xlink:href="#L"/><use transform="matrix(0.010850694444444444,0,0,0.010850694444444444,64.44227430555556,0)" xlink:href="#af"/><use transform="matrix(0.010850694444444444,0,0,0.010850694444444444,70.06293402777779,0)" xlink:href="#G"/></g><path d="M1128-1036c0 321-241 464-585 461H371V0H201v-1462h379c365 0 548 142 548 426zm-176 8c0-218-150-286-391-287H371v594h153c270-3 428-62 428-307" id="ag"/><path d="M1368-1116c259 2 372 131 371 401V0h-166v-713c0-168-66-262-230-262-221 0-303 131-303 363V0H874v-713c-1-169-66-262-231-262-235 0-301 142-301 400V0H176v-1096h135l27 150h8c56-99 174-170 324-170 171 0 283 62 336 186h8c60-108 189-187 354-186" id="ah"/><path d="M502-977c-130 0-238 32-238 139 0 75 39 101 95 134 33 19 97 46 192 81 130 48 217 95 263 143s69 108 69 181C883-73 695 20 449 20 304 20 190-3 109-49v-154c91 47 216 86 344 86 149 0 270-36 270-168 0-43-21-76-55-109-56-55-367-158-434-208-74-55-128-109-128-225 0-327 490-342 754-217l-59 135c-110-45-210-68-299-68" id="ai"/><g id="l"><use transform="matrix(0.010850694444444444,0,0,0.010850694444444444,0,0)" xlink:href="#ag"/><use transform="matrix(0.010850694444444444,0,0,0.010850694444444444,13.37890625,0)" xlink:href="#H"/><use transform="matrix(0.010850694444444444,0,0,0.010850694444444444,22.005208333333336,0)" xlink:href="#P"/><use transform="matrix(0.010850694444444444,0,0,0.010850694444444444,35.427517361111114,0)" xlink:href="#ah"/><use transform="matrix(0.010850694444444444,0,0,0.010850694444444444,56.09809027777778,0)" xlink:href="#J"/><use transform="matrix(0.010850694444444444,0,0,0.010850694444444444,61.71875,0)" xlink:href="#ai"/><use transform="matrix(0.010850694444444444,0,0,0.010850694444444444,72.31987847222223,0)" xlink:href="#G"/></g><path d="M354-322c-2 123 60 204 176 205 51 1 114-10 150-20v127C647 7 557 20 506 20 294 20 188-92 188-315v-652H31v-80l157-69 70-234h96v254h318v129H354v645" id="aj"/><g id="m"><use transform="matrix(0.010850694444444444,0,0,0.010850694444444444,0,0)" xlink:href="#F"/><use transform="matrix(0.010850694444444444,0,0,0.010850694444444444,12.196180555555555,0)" xlink:href="#aj"/><use transform="matrix(0.010850694444444444,0,0,0.010850694444444444,20.04123263888889,0)" xlink:href="#P"/><use transform="matrix(0.010850694444444444,0,0,0.010850694444444444,33.463541666666664,0)" xlink:href="#H"/><use transform="matrix(0.010850694444444444,0,0,0.010850694444444444,42.08984375,0)" xlink:href="#G"/></g><path d="M653-791h412v138H653v426H514v-426H104v-138h410v-428h139v428" id="ak"/><use transform="matrix(0.010850694444444444,0,0,0.010850694444444444,0,0)" xlink:href="#ak" id="n"/><path d="M305-731c0 386 189 602 569 602 101 0 200-12 297-35v-450H844v-152h497v711c-160 50-302 75-514 75-450 0-708-292-702-751 7-475 281-752 758-752 156 0 301 29 436 86l-66 150c-132-56-259-84-381-84-359-3-567 235-567 600" id="al"/><path d="M694-1116c270 0 399 125 398 401V0H926v-709c-1-177-76-266-252-266-250 0-332 133-332 400V0H176v-1096h135l27 150h8c62-101 190-170 348-170" id="am"/><g id="o"><use transform="matrix(0.010850694444444444,0,0,0.010850694444444444,0,0)" xlink:href="#al"/><use transform="matrix(0.010850694444444444,0,0,0.010850694444444444,16.178385416666668,0)" xlink:href="#G"/><use transform="matrix(0.010850694444444444,0,0,0.010850694444444444,28.645833333333336,0)" xlink:href="#am"/><use transform="matrix(0.010850694444444444,0,0,0.010850694444444444,42.28515625,0)" xlink:href="#G"/><use transform="matrix(0.010850694444444444,0,0,0.010850694444444444,54.752604166666664,0)" xlink:href="#H"/><use transform="matrix(0.010850694444444444,0,0,0.010850694444444444,63.82378472222222,0)" xlink:href="#J"/><use transform="matrix(0.010850694444444444,0,0,0.010850694444444444,69.44444444444444,0)" xlink:href="#K"/></g><path d="M651 0H481v-1311H18v-151h1096v151H651V0" id="an"/><path d="M340-561c134-179 332-366 485-535h197L578-629 1053 0H852L465-518 340-410V0H176v-1556h164c-4 336 9 669-8 995h8" id="ao"/><g id="p"><use transform="matrix(0.010850694444444444,0,0,0.010850694444444444,0,0)" xlink:href="#an"/><use transform="matrix(0.010850694444444444,0,0,0.010850694444444444,10.514322916666666,0)" xlink:href="#M"/><use transform="matrix(0.010850694444444444,0,0,0.010850694444444444,22.87326388888889,0)" xlink:href="#ai"/><use transform="matrix(0.010850694444444444,0,0,0.010850694444444444,33.47439236111111,0)" xlink:href="#ao"/></g><path d="M371 0H201v-1462h815v151H371v535h606v151H371V0" id="ap"/><path d="M1169-178c39-215 75-309 230-918h172L1268 0h-197c-99-332-184-548-272-911h-8C712-564 610-319 514 0H322L23-1096h174c71 275 124 485 161 629s59 241 64 291h8c76-328 186-611 279-920h180l196 629c37 115 63 211 76 289h8" id="aq"/><g id="q"><use transform="matrix(0.010850694444444444,0,0,0.010850694444444444,0,0)" xlink:href="#ap"/><use transform="matrix(0.010850694444444444,0,0,0.010850694444444444,11.469184027777777,0)" xlink:href="#H"/><use transform="matrix(0.010850694444444444,0,0,0.010850694444444444,20.09548611111111,0)" xlink:href="#M"/><use transform="matrix(0.010850694444444444,0,0,0.010850694444444444,32.45442708333333,0)" xlink:href="#ah"/><use transform="matrix(0.010850694444444444,0,0,0.010850694444444444,53.124999999999986,0)" xlink:href="#G"/><use transform="matrix(0.010850694444444444,0,0,0.010850694444444444,65.14756944444444,0)" xlink:href="#aq"/><use transform="matrix(0.010850694444444444,0,0,0.010850694444444444,82.43272569444444,0)" xlink:href="#P"/><use transform="matrix(0.010850694444444444,0,0,0.010850694444444444,95.85503472222221,0)" xlink:href="#H"/><use transform="matrix(0.010850694444444444,0,0,0.010850694444444444,104.92621527777777,0)" xlink:href="#ao"/></g><g id="r"><use transform="matrix(0.013020833333333334,0,0,0.013020833333333334,0,0)" xlink:href="#F"/><use transform="matrix(0.013020833333333334,0,0,0.013020833333333334,14.635416666666668,0)" xlink:href="#G"/><use transform="matrix(0.013020833333333334,0,0,0.013020833333333334,29.596354166666668,0)" xlink:href="#H"/><use transform="matrix(0.013020833333333334,0,0,0.013020833333333334,40.481770833333336,0)" xlink:href="#I"/><use transform="matrix(0.013020833333333334,0,0,0.013020833333333334,53.841145833333336,0)" xlink:href="#G"/><use transform="matrix(0.013020833333333334,0,0,0.013020833333333334,68.80208333333334,0)" xlink:href="#H"/><use transform="matrix(0.013020833333333334,0,0,0.013020833333333334,79.68750000000001,0)" xlink:href="#af"/><use transform="matrix(0.013020833333333334,0,0,0.013020833333333334,86.43229166666669,0)" xlink:href="#G"/><use transform="matrix(0.013020833333333334,0,0,0.013020833333333334,101.39322916666669,0)" xlink:href="#ai"/><use transform="matrix(0.013020833333333334,0,0,0.013020833333333334,114.11458333333336,0)" xlink:href="#ai"/></g><path d="M1120 0L938-465H352L172 0H0l578-1468h143L1296 0h-176zM885-618c-81-228-168-420-238-664-57 230-159 449-235 664h473" id="ar"/><g id="s"><use transform="matrix(0.013020833333333334,0,0,0.013020833333333334,0,0)" xlink:href="#ar"/><use transform="matrix(0.013020833333333334,0,0,0.013020833333333334,16.875,0)" xlink:href="#R"/><use transform="matrix(0.013020833333333334,0,0,0.013020833333333334,33.216145833333336,0)" xlink:href="#R"/></g><path d="M1198-240c-25-390-10-810-14-1222h159V0h-194L350-1227h-8c30 405 10 805 16 1227H201v-1462h192l797 1222h8" id="as"/><path d="M115-545c0-330 146-571 454-571 149 0 263 54 342 162h13c-20-185-8-401-11-602h166V0H944l-22-147h-9C836-36 722 20 569 20c-309 0-454-234-454-565zm172 2c0 249 78 424 303 424 257 0 327-150 323-426-4-282-68-432-325-432-220 0-301 191-301 434" id="at"/><g id="t"><use transform="matrix(0.013020833333333334,0,0,0.013020833333333334,0,0)" xlink:href="#as"/><use transform="matrix(0.013020833333333334,0,0,0.013020833333333334,20.104166666666668,0)" xlink:href="#P"/><use transform="matrix(0.013020833333333334,0,0,0.013020833333333334,36.2109375,0)" xlink:href="#at"/><use transform="matrix(0.013020833333333334,0,0,0.013020833333333334,52.552083333333336,0)" xlink:href="#G"/></g><path d="M125-733c6-459 248-750 704-750 153 0 287 28 402 84l-72 146c-111-52-221-78-332-78-334-1-520 251-520 600 0 361 171 600 518 600 102 0 218-18 349-55v149C1073 1 948 20 799 20c-445 1-680-294-674-753" id="au"/><use transform="matrix(0.013020833333333334,0,0,0.013020833333333334,0,0)" xlink:href="#au" id="u"/><g id="v"><use transform="matrix(0.013020833333333334,0,0,0.013020833333333334,0,0)" xlink:href="#L"/><use transform="matrix(0.013020833333333334,0,0,0.013020833333333334,16.341145833333336,0)" xlink:href="#M"/><use transform="matrix(0.013020833333333334,0,0,0.013020833333333334,31.171875,0)" xlink:href="#H"/></g><use transform="matrix(0.013020833333333334,0,0,0.013020833333333334,0,0)" xlink:href="#X" id="w"/><g id="y"><use transform="matrix(0.010850694444444444,0,0,0.010850694444444444,0,0)" xlink:href="#ae"/><use transform="matrix(0.010850694444444444,0,0,0.010850694444444444,16.200086805555554,0)" xlink:href="#Q"/><use transform="matrix(0.010850694444444444,0,0,0.010850694444444444,29.83940972222222,0)" xlink:href="#H"/><use transform="matrix(0.010850694444444444,0,0,0.010850694444444444,38.46571180555556,0)" xlink:href="#M"/><use transform="matrix(0.010850694444444444,0,0,0.010850694444444444,50.82465277777778,0)" xlink:href="#L"/><use transform="matrix(0.010850694444444444,0,0,0.010850694444444444,64.44227430555556,0)" xlink:href="#af"/><use transform="matrix(0.010850694444444444,0,0,0.010850694444444444,70.06293402777779,0)" xlink:href="#G"/></g><g id="z"><use transform="matrix(0.010850694444444444,0,0,0.010850694444444444,0,0)" xlink:href="#ag"/><use transform="matrix(0.010850694444444444,0,0,0.010850694444444444,13.37890625,0)" xlink:href="#H"/><use transform="matrix(0.010850694444444444,0,0,0.010850694444444444,22.005208333333336,0)" xlink:href="#P"/><use transform="matrix(0.010850694444444444,0,0,0.010850694444444444,35.427517361111114,0)" xlink:href="#ah"/><use transform="matrix(0.010850694444444444,0,0,0.010850694444444444,56.09809027777778,0)" xlink:href="#J"/><use transform="matrix(0.010850694444444444,0,0,0.010850694444444444,61.71875,0)" xlink:href="#ai"/><use transform="matrix(0.010850694444444444,0,0,0.010850694444444444,72.31987847222223,0)" xlink:href="#G"/></g><g id="A"><use transform="matrix(0.010850694444444444,0,0,0.010850694444444444,0,0)" xlink:href="#F"/><use transform="matrix(0.010850694444444444,0,0,0.010850694444444444,12.196180555555555,0)" xlink:href="#aj"/><use transform="matrix(0.010850694444444444,0,0,0.010850694444444444,20.04123263888889,0)" xlink:href="#P"/><use transform="matrix(0.010850694444444444,0,0,0.010850694444444444,33.463541666666664,0)" xlink:href="#H"/><use transform="matrix(0.010850694444444444,0,0,0.010850694444444444,42.08984375,0)" xlink:href="#G"/></g><use transform="matrix(0.010850694444444444,0,0,0.010850694444444444,0,0)" xlink:href="#ak" id="B"/><g id="C"><use transform="matrix(0.010850694444444444,0,0,0.010850694444444444,0,0)" xlink:href="#al"/><use transform="matrix(0.010850694444444444,0,0,0.010850694444444444,16.178385416666668,0)" xlink:href="#G"/><use transform="matrix(0.010850694444444444,0,0,0.010850694444444444,28.645833333333336,0)" xlink:href="#am"/><use transform="matrix(0.010850694444444444,0,0,0.010850694444444444,42.28515625,0)" xlink:href="#G"/><use transform="matrix(0.010850694444444444,0,0,0.010850694444444444,54.752604166666664,0)" xlink:href="#H"/><use transform="matrix(0.010850694444444444,0,0,0.010850694444444444,63.82378472222222,0)" xlink:href="#J"/><use transform="matrix(0.010850694444444444,0,0,0.010850694444444444,69.44444444444444,0)" xlink:href="#K"/></g><g id="D"><use transform="matrix(0.010850694444444444,0,0,0.010850694444444444,0,0)" xlink:href="#an"/><use transform="matrix(0.010850694444444444,0,0,0.010850694444444444,10.514322916666666,0)" xlink:href="#M"/><use transform="matrix(0.010850694444444444,0,0,0.010850694444444444,22.87326388888889,0)" xlink:href="#ai"/><use transform="matrix(0.010850694444444444,0,0,0.010850694444444444,33.47439236111111,0)" xlink:href="#ao"/></g><g id="E"><use transform="matrix(0.010850694444444444,0,0,0.010850694444444444,0,0)" xlink:href="#ap"/><use transform="matrix(0.010850694444444444,0,0,0.010850694444444444,11.469184027777777,0)" xlink:href="#H"/><use transform="matrix(0.010850694444444444,0,0,0.010850694444444444,20.09548611111111,0)" xlink:href="#M"/><use transform="matrix(0.010850694444444444,0,0,0.010850694444444444,32.45442708333333,0)" xlink:href="#ah"/><use transform="matrix(0.010850694444444444,0,0,0.010850694444444444,53.124999999999986,0)" xlink:href="#G"/><use transform="matrix(0.010850694444444444,0,0,0.010850694444444444,65.14756944444444,0)" xlink:href="#aq"/><use transform="matrix(0.010850694444444444,0,0,0.010850694444444444,82.43272569444444,0)" xlink:href="#P"/><use transform="matrix(0.010850694444444444,0,0,0.010850694444444444,95.85503472222221,0)" xlink:href="#H"/><use transform="matrix(0.010850694444444444,0,0,0.010850694444444444,104.92621527777777,0)" xlink:href="#ao"/></g></defs></g></svg>