<svg xmlns="http://www.w3.org/2000/svg" xmlns:xlink="http://www.w3.org/1999/xlink" xmlns:lucid="lucid" width="2082" height="322"><g transform="translate(321 201)" lucid:page-tab-id="0_0"><path d="M-500-500h2500V500H-500z" fill="#fff"/><path d="M-320-194a6 6 0 0 1 6-6h2068a6 6 0 0 1 6 6v308a6 6 0 0 1-6 6H-314a6 6 0 0 1-6-6z" stroke="#000" stroke-opacity="0" stroke-width="2" fill="#fff"/><path d="M1040-154a6 6 0 0 1 6-6h228a6 6 0 0 1 6 6V74a6 6 0 0 1-6 6h-228a6 6 0 0 1-6-6z" stroke="#3a414a" stroke-width="2" fill="#fff"/><use xlink:href="#a" transform="matrix(1,0,0,1,1045,-155) translate(45.59244791666667 121.94010416666667)"/><use xlink:href="#b" transform="matrix(1,0,0,1,1045,-155) translate(140.76171875 121.94010416666667)"/><path d="M160-154a6 6 0 0 1 6-6h228a6 6 0 0 1 6 6V74a6 6 0 0 1-6 6H166a6 6 0 0 1-6-6z" stroke="#3a414a" stroke-width="2" fill="#fff"/><use xlink:href="#a" transform="matrix(1,0,0,1,165,-155) translate(46.79036458333333 121.94010416666667)"/><use xlink:href="#c" transform="matrix(1,0,0,1,165,-155) translate(141.95963541666666 121.94010416666667)"/><path d="M600-154a6 6 0 0 1 6-6h228a6 6 0 0 1 6 6V74a6 6 0 0 1-6 6H606a6 6 0 0 1-6-6z" stroke="#3a414a" stroke-width="2" fill="#fff"/><use xlink:href="#a" transform="matrix(1,0,0,1,605,-155) translate(46.38671875 121.94010416666667)"/><use xlink:href="#d" transform="matrix(1,0,0,1,605,-155) translate(141.55598958333331 121.94010416666667)"/><path d="M402-120.33h178.5" stroke="#3a414a" stroke-width="2" fill="none"/><path d="M402.03-119.36H401v-1.95h1.03z" stroke="#3a414a" stroke-width=".05" fill="#3a414a"/><path d="M595.76-120.33l-14.26 4.63v-9.27z" stroke="#3a414a" stroke-width="2" fill="#3a414a"/><path d="M842-123h178.5" stroke="#3a414a" stroke-width="2" fill="none"/><path d="M842.03-122.03H841v-1.95h1.03z" stroke="#3a414a" stroke-width=".05" fill="#3a414a"/><path d="M1035.76-123l-14.26 4.63v-9.27z" stroke="#3a414a" stroke-width="2" fill="#3a414a"/><path d="M1038 40.32h-4.08m-8.17 0h-8.17m-8.16 0h-8.17m-8.17 0h-8.16m-8.17 0h-8.17m-8.16 0h-8.17m-8.17 0h-8.1m-8.06 0h-8.04m-8.05 0h-8.05m-8.05 0h-8.05m-8.05 0h-8.05m-8.05 0h-4.03" stroke="#3a414a" stroke-width="2" fill="none"/><path d="M1039 41.3h-1.03v-1.96h1.03z" stroke="#3a414a" stroke-width=".05" fill="#3a414a"/><path d="M844.24 40.32l14.26-4.64v9.27z" stroke="#3a414a" stroke-width="2" fill="#3a414a"/><path d="M598 41.06h-4.08m-8.17 0h-8.17m-8.16 0h-8.17m-8.17 0h-8.16m-8.17 0h-8.17m-8.16 0h-8.17m-8.17 0h-8.1m-8.06 0h-8.04m-8.05 0h-8.05m-8.05 0h-8.05m-8.05 0h-8.05m-8.05 0h-4.03" stroke="#3a414a" stroke-width="2" fill="none"/><path d="M599 42.03h-1.03v-1.95H599z" stroke="#3a414a" stroke-width=".05" fill="#3a414a"/><path d="M404.24 41.06l14.26-4.64v9.27z" stroke="#3a414a" stroke-width="2" fill="#3a414a"/><defs><path fill="#3a414a" d="M584-1331c-162 0-287 69-287 219 0 118 43 164 123 214 44 28 112 56 203 89 153 55 259 113 317 176s86 144 86 244c-1 276-228 409-520 409-173 0-307-22-400-67v-164c109 46 257 81 406 82 199 1 342-68 342-244 0-120-47-164-132-214-47-28-121-58-218-93-136-49-234-106-292-173s-87-154-87-261c-1-239 209-369 463-369 145 0 279 27 401 80l-53 148c-121-51-238-76-352-76" id="e"/><path fill="#3a414a" d="M995-51C878-2 799 19 639 20c-329 2-524-221-524-559 0-326 172-577 481-577 278 0 451 210 446 493v105H287c4 242 121 392 358 393 118 0 235-25 350-74v148zM864-653c2-195-85-324-270-324-190 0-288 139-303 324h573" id="f"/><path fill="#3a414a" d="M340-893c80-153 237-262 467-211l-23 154c-45-10-85-15-120-15-184-3-322 182-322 377V0H176v-1096h137l19 203h8" id="g"/><path fill="#3a414a" d="M516-150c94-315 146-423 332-946h178L610 0H416L0-1096h178c98 281 253 670 330 946h8" id="h"/><path fill="#3a414a" d="M342 0H176v-1096h166V0zm-82-1282c-61 0-98-43-98-111 0-69 36-110 98-110 59 0 98 43 98 110s-39 111-98 111" id="i"/><path fill="#3a414a" d="M287-543c-1 247 91 418 323 418 91 0 185-20 281-59v147C818 1 725 20 614 20c-329 0-499-221-499-561 0-349 172-575 510-575 96 0 221 26 282 57l-51 141c-61-25-157-50-235-51-223 0-334 142-334 426" id="j"/><g id="a"><use transform="matrix(0.013020833333333334,0,0,0.013020833333333334,0,0)" xlink:href="#e"/><use transform="matrix(0.013020833333333334,0,0,0.013020833333333334,14.635416666666668,0)" xlink:href="#f"/><use transform="matrix(0.013020833333333334,0,0,0.013020833333333334,29.596354166666668,0)" xlink:href="#g"/><use transform="matrix(0.013020833333333334,0,0,0.013020833333333334,40.481770833333336,0)" xlink:href="#h"/><use transform="matrix(0.013020833333333334,0,0,0.013020833333333334,53.841145833333336,0)" xlink:href="#i"/><use transform="matrix(0.013020833333333334,0,0,0.013020833333333334,60.5859375,0)" xlink:href="#j"/><use transform="matrix(0.013020833333333334,0,0,0.013020833333333334,73.28125,0)" xlink:href="#f"/></g><path fill="#3a414a" d="M686 20c-159 0-273-61-344-161h-12L295 0H176v-1556h166c-2 198 6 423-8 606h8c77-109 192-164 344-164 310 0 455 234 455 565 0 329-147 569-455 569zm283-571c0-257-72-424-307-424-256 0-320 146-320 426s68 430 324 430c228 0 303-184 303-432" id="k"/><path fill="#3a414a" d="M588-1114c260 0 384 106 385 366V0H850l-33-156h-8C708-34 639 17 442 20 231 23 94-94 94-303c0-221 177-337 531-348l186-6c11-203-40-320-233-320-91 0-195 28-310 84l-51-127c97-53 229-94 371-94zM268-301c-1 123 81 184 207 184 203 0 334-120 332-323v-99c-257 14-539-7-539 238" id="l"/><path fill="#3a414a" d="M877 0H82v-113l598-854H119v-129h743v129L272-129h605V0" id="m"/><g id="b"><use transform="matrix(0.013020833333333334,0,0,0.013020833333333334,0,0)" xlink:href="#k"/><use transform="matrix(0.013020833333333334,0,0,0.013020833333333334,16.341145833333336,0)" xlink:href="#l"/><use transform="matrix(0.013020833333333334,0,0,0.013020833333333334,31.171875,0)" xlink:href="#m"/></g><path fill="#3a414a" d="M575-1430c-169 0-190 146-184 334h279v129H391V0H225v-967H29v-75l196-60c-15-299 97-465 353-465 58 0 126 12 204 35l-43 133c-64-21-119-31-164-31" id="n"/><path fill="#3a414a" d="M621-1116c316 0 501 239 501 567 0 339-180 575-508 569S119-212 115-549c-4-339 178-567 506-567zm-5 141c-239 0-329 168-329 426 0 255 93 430 331 430s332-174 332-430-95-426-334-426" id="o"/><g id="c"><use transform="matrix(0.013020833333333334,0,0,0.013020833333333334,0,0)" xlink:href="#n"/><use transform="matrix(0.013020833333333334,0,0,0.013020833333333334,9.036458333333334,0)" xlink:href="#o"/><use transform="matrix(0.013020833333333334,0,0,0.013020833333333334,25.14322916666667,0)" xlink:href="#o"/></g><g id="d"><use transform="matrix(0.013020833333333334,0,0,0.013020833333333334,0,0)" xlink:href="#k"/><use transform="matrix(0.013020833333333334,0,0,0.013020833333333334,16.341145833333336,0)" xlink:href="#l"/><use transform="matrix(0.013020833333333334,0,0,0.013020833333333334,31.171875,0)" xlink:href="#g"/></g></defs></g></svg>