<svg xmlns="http://www.w3.org/2000/svg" xmlns:xlink="http://www.w3.org/1999/xlink" xmlns:lucid="lucid" width="2082" height="1522"><g transform="translate(-99 -479)" lucid:page-tab-id="0_0"><path d="M0 0h2500v2500H0z" fill="#fff"/><path d="M100 486a6 6 0 0 1 6-6h2068a6 6 0 0 1 6 6v1508a6 6 0 0 1-6 6H106a6 6 0 0 1-6-6z" stroke="#000" stroke-opacity="0" stroke-width="2" fill="#fff"/><path d="M1760 680h240v1280h-240zM1280 680h240v1280h-240zM280 680h720v1280H280z" stroke="#000" stroke-opacity="0" fill="#f2f3f5"/><path d="M320 720h160v80H320z" stroke="#282c33" fill="#fff"/><use xlink:href="#a" transform="matrix(1,0,0,1,325,725) translate(34.99348958333334 44.07552083333333)"/><path d="M800 720h160v80H800z" stroke="#282c33" fill="#fff"/><use xlink:href="#b" transform="matrix(1,0,0,1,805,725) translate(34.99348958333334 44.07552083333333)"/><path d="M360 920h80v800h-80zM1320 720h160v80h-160z" stroke="#282c33" fill="#fff"/><use xlink:href="#a" transform="matrix(1,0,0,1,1325,725) translate(34.99348958333334 44.07552083333333)"/><path d="M1800 720h160v80h-160z" stroke="#282c33" fill="#fff"/><use xlink:href="#b" transform="matrix(1,0,0,1,1805,725) translate(34.99348958333334 44.07552083333333)"/><path d="M840 1120h80v480h-80zM1840 1119.56h80v480h-80zM1360 920h80v800h-80z" stroke="#282c33" fill="#fff"/><path d="M360 1120h80v480h-80zM1360 1120h80v40h-80zM1360 1360h80v239.56h-80z" stroke="#282c33" fill="#3a414a"/><path d="M320 486a6 6 0 0 1 6-6h628a6 6 0 0 1 6 6v148a6 6 0 0 1-6 6H326a6 6 0 0 1-6-6z" stroke="#000" stroke-opacity="0" fill="#fff" fill-opacity="0"/><use xlink:href="#c" transform="matrix(1,0,0,1,325,485) translate(144.13085937500003 89.62890624999999)"/><use xlink:href="#d" transform="matrix(1,0,0,1,325,485) translate(411.806640625 89.62890624999999)"/><path d="M400 801v118" stroke="#3a414a" fill="none"/><path d="M400.48 801h-.96v-.5h.96zM400.48 919.5h-.96v-.5h.96z" stroke="#3a414a" stroke-width=".05" fill="#3a414a"/><path d="M400 1721v168.67" stroke="#3a414a" fill="none"/><path d="M400.48 1721h-.96v-.5h.96z" stroke="#3a414a" stroke-width=".05" fill="#3a414a"/><path d="M415 1904.5c0 8.28-6.72 15-15 15-8.28 0-15-6.72-15-15 0-8.28 6.72-15 15-15 8.28 0 15 6.72 15 15z" stroke="#3a414a" fill="#fff"/><path d="M880 1601v288.67" stroke="#3a414a" fill="none"/><path d="M880.48 1601h-.96v-.5h.96z" stroke="#3a414a" stroke-width=".05" fill="#3a414a"/><path d="M895 1904.5c0 8.28-6.72 15-15 15-8.28 0-15-6.72-15-15 0-8.28 6.72-15 15-15 8.28 0 15 6.72 15 15z" stroke="#3a414a" fill="#fff"/><path d="M880 801v318" stroke="#3a414a" fill="none"/><path d="M880.48 801h-.96v-.5h.96zM880.48 1119.5h-.96v-.5h.96z" stroke="#3a414a" stroke-width=".05" fill="#3a414a"/><path d="M1400 801v118" stroke="#3a414a" fill="none"/><path d="M1400.47 801h-.94v-.5h.94zM1400.47 919.5h-.94v-.5h.94z" stroke="#3a414a" stroke-width=".05" fill="#3a414a"/><path d="M1400 1721v168.67" stroke="#3a414a" fill="none"/><path d="M1400.47 1721h-.94v-.5h.94z" stroke="#3a414a" stroke-width=".05" fill="#3a414a"/><path d="M1415 1904.5c0 8.28-6.72 15-15 15-8.28 0-15-6.72-15-15 0-8.28 6.72-15 15-15 8.28 0 15 6.72 15 15z" stroke="#3a414a" fill="#fff"/><path d="M1880 801v317.56" stroke="#3a414a" fill="none"/><path d="M1880.47 801h-.94v-.5h.94zM1880.47 1119.06h-.94v-.52h.94z" stroke="#3a414a" stroke-width=".05" fill="#3a414a"/><path d="M1880 1600.56v289.1" stroke="#3a414a" fill="none"/><path d="M1880.47 1600.57h-.94v-.5h.94z" stroke="#3a414a" stroke-width=".05" fill="#3a414a"/><path d="M1895 1904.5c0 8.28-6.72 15-15 15-8.28 0-15-6.72-15-15 0-8.28 6.72-15 15-15 8.28 0 15 6.72 15 15z" stroke="#3a414a" fill="#fff"/><path d="M441 1123.3h382.12" stroke="#3a414a" fill="none"/><path d="M441 1123.77h-.5v-.95h.5z" stroke="#3a414a" stroke-width=".05" fill="#3a414a"/><path d="M837.88 1123.3l-14.26 4.63v-9.27z" stroke="#3a414a" fill="#3a414a"/><path d="M839 1600.5h-2m-3.97 0h-3.98m-3.98 0h-3.98m-4 0h-3.97m-3.98 0h-3.98m-3.98 0h-4m-3.97 0h-3.98m-3.98 0h-3.98m-4 0h-3.97m-3.98 0h-3.98m-3.98 0h-4m-3.97 0h-3.98m-3.98 0h-3.98m-4 0h-3.97m-3.98 0h-3.98m-3.98 0h-4m-3.97 0h-3.98m-3.98 0h-3.98m-4 0h-3.97m-3.98 0h-3.98m-3.98 0h-4m-3.97 0h-3.98m-3.98 0h-3.98m-4 0h-3.97m-3.98 0h-3.98m-3.98 0h-4m-3.97 0h-3.98m-3.98 0h-3.98m-4 0h-3.98m-3.98 0h-3.98m-3.98 0h-3.98m-3.98 0h-3.98m-3.98 0h-3.98m-3.98 0h-3.98m-3.98 0h-3.98m-4 0h-3.97m-4 0h-3.97m-3.98 0h-3.98m-3.98 0h-4m-3.97 0h-3.98m-3.98 0h-3.98m-4 0h-3.98m-3.98 0h-3.98m-3.98 0h-3.98m-3.98 0h-3.98m-3.98 0h-3.98m-3.98 0h-3.98m-3.98 0h-3.98m-4 0h-1.98" stroke="#3a414a" fill="none"/><path d="M839.5 1600.5h3v.47H839v-.94h.5z" stroke="#3a414a" stroke-width=".05" fill="#3a414a"/><path d="M442.12 1600.5l14.26-4.63v9.27z" stroke="#3a414a" fill="#3a414a"/><path d="M520 1026a6 6 0 0 1 6-6h228a6 6 0 0 1 6 6v68a6 6 0 0 1-6 6H526a6 6 0 0 1-6-6z" stroke="#000" stroke-opacity="0" fill="#fff" fill-opacity="0"/><use xlink:href="#e" transform="matrix(1,0,0,1,525,1025) translate(83.42447916666667 46.002604166666664)"/><use xlink:href="#f" transform="matrix(1,0,0,1,525,1025) translate(138.97135416666669 46.002604166666664)"/><path d="M520 1506a6 6 0 0 1 6-6h228a6 6 0 0 1 6 6v68a6 6 0 0 1-6 6H526a6 6 0 0 1-6-6z" stroke="#000" stroke-opacity="0" fill="#fff" fill-opacity="0"/><use xlink:href="#g" transform="matrix(1,0,0,1,525,1505) translate(43.60677083333334 46.002604166666664)"/><use xlink:href="#h" transform="matrix(1,0,0,1,525,1505) translate(123.69791666666667 46.002604166666664)"/><path d="M1441 1123.3h382.12" stroke="#3a414a" fill="none"/><path d="M1441 1123.77h-.5v-.95h.5z" stroke="#3a414a" stroke-width=".05" fill="#3a414a"/><path d="M1837.88 1123.3l-14.26 4.63v-9.27z" stroke="#3a414a" fill="#3a414a"/><path d="M1840 1160h80v200h-80z" stroke="#282c33" fill="#fff"/><path d="M1839 1162.72h-2m-3.97 0h-3.98m-3.98 0h-3.98m-4 0h-3.97m-3.98 0h-3.98m-3.98 0h-4m-3.97 0h-4m-3.96 0h-3.98m-4 0h-3.98m-3.98 0h-3.98m-3.98 0h-3.98m-3.98 0h-3.98m-3.98 0h-3.98m-3.98 0h-3.98m-3.98 0h-3.98m-3.98 0h-3.98m-3.98 0h-3.98m-3.98 0h-3.98m-3.98 0h-3.98m-3.98 0h-3.98m-3.98 0h-3.98m-4 0h-3.97m-3.98 0h-3.98m-3.98 0h-4m-3.97 0h-3.98m-3.98 0H1638m-4 0h-3.97m-3.98 0h-3.98m-3.98 0h-4m-3.97 0h-3.98m-3.98 0h-3.98m-4 0h-3.97m-3.98 0h-3.98m-3.98 0h-4m-3.97 0h-4m-3.97 0h-3.98m-3.98 0h-3.98m-3.98 0h-3.98m-3.98 0h-3.98m-3.98 0h-3.98m-3.98 0h-3.98m-3.98 0h-3.98m-3.98 0h-3.98m-3.98 0h-3.98m-3.98 0h-3.98m-3.98 0h-3.98m-3.98 0h-3.98m-3.98 0h-4m-3.97 0h-2" stroke="#3a414a" fill="none"/><path d="M1839.5 1163.2h-.5v-.96h.5z" stroke="#3a414a" stroke-width=".05" fill="#3a414a"/><path d="M1442.12 1162.72l14.26-4.64v9.27z" stroke="#3a414a" fill="#3a414a"/><path d="M1441 1362h382.12" stroke="#3a414a" fill="none"/><path d="M1441 1362.5h-.5v-.96h.5z" stroke="#3a414a" stroke-width=".05" fill="#3a414a"/><path d="M1837.88 1362l-14.26 4.65v-9.27z" stroke="#3a414a" fill="#3a414a"/><path d="M1839 1600.06h-2m-3.97 0h-3.98m-3.98 0h-3.98m-4 0h-3.97m-3.98 0h-3.98m-3.98 0h-4m-3.97 0h-4m-3.96 0h-3.98m-4 0h-3.98m-3.98 0h-3.98m-3.98 0h-3.98m-3.98 0h-3.98m-3.98 0h-3.98m-3.98 0h-3.98m-3.98 0h-3.98m-3.98 0h-3.98m-3.98 0h-3.98m-3.98 0h-3.98m-3.98 0h-3.98m-3.98 0h-3.98m-3.98 0h-3.98m-4 0h-3.97m-3.98 0h-3.98m-3.98 0h-4m-3.97 0h-3.98m-3.98 0H1638m-4 0h-3.97m-3.98 0h-3.98m-3.98 0h-4m-3.97 0h-3.98m-3.98 0h-3.98m-4 0h-3.97m-3.98 0h-3.98m-3.98 0h-4m-3.97 0h-4m-3.97 0h-3.98m-3.98 0h-3.98m-3.98 0h-3.98m-3.98 0h-3.98m-3.98 0h-3.98m-3.98 0h-3.98m-3.98 0h-3.98m-3.98 0h-3.98m-3.98 0h-3.98m-3.98 0h-3.98m-3.98 0h-3.98m-3.98 0h-3.98m-3.98 0h-4m-3.97 0h-2" stroke="#3a414a" fill="none"/><path d="M1839.5 1600.06h3v.47h-3.5v-.95h.5z" stroke="#3a414a" stroke-width=".05" fill="#3a414a"/><path d="M1442.12 1600.06l14.26-4.64v9.27z" stroke="#3a414a" fill="#3a414a"/><path d="M1520 1026a6 6 0 0 1 6-6h228a6 6 0 0 1 6 6v68a6 6 0 0 1-6 6h-228a6 6 0 0 1-6-6z" stroke="#000" stroke-opacity="0" fill="#fff" fill-opacity="0"/><use xlink:href="#e" transform="matrix(1,0,0,1,1525,1025) translate(83.42447916666667 46.002604166666664)"/><use xlink:href="#f" transform="matrix(1,0,0,1,1525,1025) translate(138.97135416666669 46.002604166666664)"/><path d="M1520 1186a6 6 0 0 1 6-6h228a6 6 0 0 1 6 6v68a6 6 0 0 1-6 6h-228a6 6 0 0 1-6-6z" stroke="#000" stroke-opacity="0" fill="#fff" fill-opacity="0"/><use xlink:href="#i" transform="matrix(1,0,0,1,1525,1185) translate(67.51302083333334 46.002604166666664)"/><path d="M1520 1286a6 6 0 0 1 6-6h228a6 6 0 0 1 6 6v68a6 6 0 0 1-6 6h-228a6 6 0 0 1-6-6z" stroke="#000" stroke-opacity="0" fill="#fff" fill-opacity="0"/><use xlink:href="#j" transform="matrix(1,0,0,1,1525,1285) translate(47.63020833333334 46.002604166666664)"/><use xlink:href="#k" transform="matrix(1,0,0,1,1525,1285) translate(119.21875 46.002604166666664)"/><use xlink:href="#l" transform="matrix(1,0,0,1,1525,1285) translate(174.765625 46.002604166666664)"/><path d="M1520 1506a6 6 0 0 1 6-6h228a6 6 0 0 1 6 6v68a6 6 0 0 1-6 6h-228a6 6 0 0 1-6-6z" stroke="#000" stroke-opacity="0" fill="#fff" fill-opacity="0"/><g><use xlink:href="#g" transform="matrix(1,0,0,1,1525,1505) translate(43.60677083333334 46.002604166666664)"/><use xlink:href="#h" transform="matrix(1,0,0,1,1525,1505) translate(123.69791666666667 46.002604166666664)"/></g><path d="M1320 486a6 6 0 0 1 6-6h628a6 6 0 0 1 6 6v148a6 6 0 0 1-6 6h-628a6 6 0 0 1-6-6z" stroke="#000" stroke-opacity="0" fill="#fff" fill-opacity="0"/><g><use xlink:href="#m" transform="matrix(1,0,0,1,1325,485) translate(131.40625000000003 89.62890624999999)"/><use xlink:href="#d" transform="matrix(1,0,0,1,1325,485) translate(424.53125 89.62890624999999)"/></g><defs><path fill="#3a414a" d="M844-1321c-130 0-195 53-191 182v57h443v190H653V0H373v-892H117v-190h256v-83c5-247 162-348 422-349 120-1 232 13 327 28v184c-84-10-183-19-278-19" id="n"/><path fill="#3a414a" d="M616-1102c361 0 521 202 521 560 0 354-171 562-527 562C259 20 92-192 92-542c0-351 169-560 524-560zm-9 930c200-2 236-165 236-370 0-199-27-367-223-367-195 0-233 146-233 367 0 129 18 223 55 282s92 88 165 88" id="o"/><path fill="#3a414a" d="M621-530c0 421 127 700 301 955H641C466 173 344-110 344-531s122-702 297-953h281c-174 254-301 534-301 954" id="p"/><path fill="#3a414a" d="M885-531c0 421-122 704-297 956H307c174-255 301-534 301-955 0-420-127-700-301-954h281c175 251 297 532 297 953" id="q"/><g id="a"><use transform="matrix(0.013020833333333332,0,0,0.013020833333333332,0,0)" xlink:href="#n"/><use transform="matrix(0.013020833333333332,0,0,0.013020833333333332,16.002604166666664,0)" xlink:href="#o"/><use transform="matrix(0.013020833333333332,0,0,0.013020833333333332,32.00520833333333,0)" xlink:href="#o"/><use transform="matrix(0.013020833333333332,0,0,0.013020833333333332,48.00781249999999,0)" xlink:href="#p"/><use transform="matrix(0.013020833333333332,0,0,0.013020833333333332,64.01041666666666,0)" xlink:href="#q"/></g><path fill="#3a414a" d="M429-1484c1 190-1 388 0 572 54-116 155-191 317-191 300 0 386 257 386 563 0 241-73 429-226 518-49 28-106 42-169 42-162 0-251-81-306-196h-4c-1 59-5 127-15 176H140c4-67 9-153 8-236v-1248h281zm66 648c-93 114-92 466 1 585 35 45 77 79 142 79 64 0 112-31 148-92 69-115 68-440-2-561-39-68-131-111-221-70-25 11-46 32-68 59" id="r"/><path fill="#3a414a" d="M775-193C708-75 621 20 439 20 226 20 106-93 106-306c0-251 170-341 417-346l223-4c4-143-12-264-148-264-103 0-141 58-150 153l-293-14c37-219 194-321 455-321 263 0 418 130 417 390v392c1 84 5 161 89 160 21 0 42-2 62-6v152c-57 15-108 27-180 26-145 0-202-73-217-205h-6zm-256 17c168 0 234-139 227-325-166 4-347-25-347 173 0 94 33 152 120 152" id="s"/><path fill="#3a414a" d="M875-1102c70 0 148 7 206 17v237c-110-17-267-37-359 15-123 69-192 207-192 395V0H250c-10-367 32-789-52-1082h271c19 69 36 149 46 228h4c52-151 151-250 356-248" id="t"/><g id="b"><use transform="matrix(0.013020833333333332,0,0,0.013020833333333332,0,0)" xlink:href="#r"/><use transform="matrix(0.013020833333333332,0,0,0.013020833333333332,16.002604166666664,0)" xlink:href="#s"/><use transform="matrix(0.013020833333333332,0,0,0.013020833333333332,32.00520833333333,0)" xlink:href="#t"/><use transform="matrix(0.013020833333333332,0,0,0.013020833333333332,48.00781249999999,0)" xlink:href="#p"/><use transform="matrix(0.013020833333333332,0,0,0.013020833333333332,64.01041666666666,0)" xlink:href="#q"/></g><path fill="#3a414a" d="M596-1225c-134-8-223 103-163 219 11 21 33 41 61 60s93 53 196 102c137 65 230 130 281 196s76 147 76 242c-3 286-231 426-539 426C352 20 214-9 94-68v-288c159 68 260 115 438 120 123 3 211-41 211-155 0-73-44-105-95-141-63-46-329-160-390-220-78-77-147-167-147-315 0-273 208-420 495-416 177 2 298 46 434 103l-100 241c-131-51-199-78-344-86" id="u"/><path fill="#3a414a" d="M0-1118h334l211 629c18 55 30 119 37 194h6c7-69 23-133 43-194l207-629h327L692 143C611 389 392 544 70 475V233c95 21 196 18 262-37 50-42 89-123 112-204" id="v"/><path fill="#3a414a" d="M795-1139c261-1 398 148 397 410V0H887v-653c-1-148-42-242-180-242-202 0-242 139-242 369V0H160v-1118h233l41 143h17c62-102 185-163 344-164" id="w"/><path fill="#3a414a" d="M954-63C853 0 774 20 614 20 266 20 92-171 92-553c0-369 188-586 549-586 129 0 245 25 348 76l-90 236c-84-31-156-66-258-66-159 0-238 113-238 338 0 219 79 328 238 328 137 0 223-38 313-97v261" id="x"/><path fill="#3a414a" d="M791-1139c262-1 402 148 401 410V0H887v-653c0-161-60-242-180-242-201 0-242 142-242 369V0H160v-1556h305c-1 210 6 368-14 581h16c68-109 176-164 324-164" id="y"/><path fill="#3a414a" d="M451-930c71-134 228-244 436-200l-23 286c-220-45-399 61-399 275V0H160v-1118h231l45 188h15" id="z"/><path fill="#3a414a" d="M633-893c-183 0-230 133-230 332s48 336 232 336c183 0 229-137 229-336s-47-332-231-332zm4-246c347 5 535 225 539 578S978 25 631 20C283 15 96-208 92-561c-4-355 196-583 545-578" id="A"/><path fill="#3a414a" d="M639-223c202 0 242-139 242-369v-526h305V0H952l-41-143h-16C834-43 709 20 551 20c-263 0-397-147-397-409v-729h305v653c1 148 42 242 180 242" id="B"/><path fill="#3a414a" d="M836-831c-99-39-182-77-306-82-139-6-173 83-92 144 51 39 327 139 383 188 71 62 119 126 119 249C940-74 747 21 463 20 305 20 202 0 94-45v-252c93 45 253 94 379 94 111 0 166-32 166-96 0-68-41-76-98-109-79-46-276-119-333-167-74-61-116-125-116-252 0-368 555-367 836-224" id="C"/><g id="c"><use transform="matrix(0.019531249999999993,0,0,0.019531249999999993,0,0)" xlink:href="#u"/><use transform="matrix(0.019531249999999993,0,0,0.019531249999999993,22.031249999999993,0)" xlink:href="#v"/><use transform="matrix(0.019531249999999993,0,0,0.019531249999999993,44.785156249999986,0)" xlink:href="#w"/><use transform="matrix(0.019531249999999993,0,0,0.019531249999999993,71.07421874999997,0)" xlink:href="#x"/><use transform="matrix(0.019531249999999993,0,0,0.019531249999999993,91.64062499999997,0)" xlink:href="#y"/><use transform="matrix(0.019531249999999993,0,0,0.019531249999999993,117.92968749999996,0)" xlink:href="#z"/><use transform="matrix(0.019531249999999993,0,0,0.019531249999999993,135.29296874999994,0)" xlink:href="#A"/><use transform="matrix(0.019531249999999993,0,0,0.019531249999999993,160.05859374999994,0)" xlink:href="#w"/><use transform="matrix(0.019531249999999993,0,0,0.019531249999999993,186.34765624999994,0)" xlink:href="#A"/><use transform="matrix(0.019531249999999993,0,0,0.019531249999999993,211.11328124999997,0)" xlink:href="#B"/><use transform="matrix(0.019531249999999993,0,0,0.019531249999999993,237.40234374999994,0)" xlink:href="#C"/></g><path fill="#3a414a" d="M1133-1128c-95-42-202-97-328-97-258 0-367 218-367 498 0 326 122 489 367 489 103 0 227-26 373-77v260C1058-5 924 20 776 20c-443 0-662-290-657-749 5-455 236-754 686-754 142 0 285 34 428 103" id="D"/><path fill="#3a414a" d="M618-1141c286 0 465 117 465 396V0H870l-59-152h-8C704-33 632 18 432 20 216 22 86-113 86-334c0-119 44-202 124-262 109-82 356-99 570-100 11-142-39-219-174-219-89 0-194 27-315 81l-101-206c129-67 271-101 428-101zm-71 938c137 0 235-88 233-223v-92c-190 3-382 4-381 186 0 86 49 129 148 129" id="E"/><path fill="#3a414a" d="M465 0H160v-1556h305V0" id="F"/><g id="d"><use transform="matrix(0.019531249999999993,0,0,0.019531249999999993,0,0)" xlink:href="#D"/><use transform="matrix(0.019531249999999993,0,0,0.019531249999999993,25.48828124999999,0)" xlink:href="#E"/><use transform="matrix(0.019531249999999993,0,0,0.019531249999999993,49.648437499999986,0)" xlink:href="#F"/><use transform="matrix(0.019531249999999993,0,0,0.019531249999999993,61.855468749999986,0)" xlink:href="#F"/></g><path fill="#3a414a" d="M782-1114c200 0 299 159 299 371 0 280-101 538-259 663C740-15 648 20 545 20c-141-1-238-84-281-190h-10L184 0H59l330-1556h168c-67 311-78 398-154 671h9c62-79 124-136 184-173s122-56 186-56zM319-346c-1 144 74 227 216 227 66 0 127-28 185-81 112-104 189-330 189-548 0-151-59-227-178-227-64 0-128 32-195 95-119 111-216 315-217 534" id="G"/><path fill="#3a414a" d="M395 20C197 20 98-140 98-350c0-281 108-539 267-665 84-66 175-101 274-101 140 0 231 83 276 192h11l67-172h127L887 0H754l26-209h-8C653-56 527 20 395 20zM270-346c0 138 53 227 179 227 65 0 128-32 193-93 115-108 214-325 216-538 1-130-78-226-203-225-69 0-133 29-193 86-114 107-192 324-192 543" id="H"/><path fill="#3a414a" d="M638-1094c62-31 165-26 234-8l-36 150c-208-55-339 76-414 214-40 71-69 149-88 236L227 0H59l234-1096h139l-22 203h10c81-104 117-151 218-201" id="I"/><path fill="#3a414a" d="M229 324C29-17 45-526 202-899c80-192 208-380 384-563h157c-164 180-284 371-371 570C211-523 205-34 360 324H229" id="J"/><g id="e"><use transform="matrix(0.013020833333333332,0,0,0.013020833333333332,0,0)" xlink:href="#G"/><use transform="matrix(0.013020833333333332,0,0,0.013020833333333332,15.390624999999998,0)" xlink:href="#H"/><use transform="matrix(0.013020833333333332,0,0,0.013020833333333332,30.455729166666664,0)" xlink:href="#I"/><use transform="matrix(0.013020833333333332,0,0,0.013020833333333332,41.015625,0)" xlink:href="#J"/></g><path fill="#3a414a" d="M354-1462c198 345 182 854 24 1228C297-42 170 144-4 324h-156C171-43 336-439 336-864c0-227-38-427-113-598h131" id="K"/><use transform="matrix(0.013020833333333332,0,0,0.013020833333333332,0,0)" xlink:href="#K" id="f"/><path fill="#3a414a" d="M817-59C704-8 636 18 492 20 245 23 98-141 98-391c0-259 120-515 272-629 83-63 172-96 271-96 187 0 307 79 307 252 0 120-56 213-166 282-115 72-291 106-508 103-23 208 46 364 248 358 126-4 186-33 295-84v146zm-35-791c0-80-59-123-151-123-69 0-133 31-193 94S331-729 299-618c155 1 279-19 361-60 81-40 122-97 122-172" id="L"/><path fill="#3a414a" d="M303-365c-31 124-35 248 92 248 37 0 85-9 144-26v129C505 2 421 20 375 20c-162 0-258-76-258-237 0-44 6-94 18-150l127-602H90l14-73 185-78 125-228h98l-55 252h274l-26 127H432" id="M"/><path fill="#3a414a" d="M387 20c-169 1-276-98-274-268 0-41 6-99 22-172l146-676h170L301-401c-37 146-30 289 129 282 155-7 253-113 323-232 112-195 137-497 199-745h166L887 0H748l22-203h-12C693-120 630-62 571-29S450 20 387 20" id="N"/><path fill="#3a414a" d="M791-1116c166-2 276 98 274 264 0 53-9 112-23 180L899 0H729l148-692c13-69 20-117 20-144-2-90-51-143-149-139-156 7-254 112-322 231C314-549 290-247 227 0H59l234-1096h139l-22 203h10c64-81 126-139 186-173s121-50 185-50" id="O"/><g id="g"><use transform="matrix(0.013020833333333332,0,0,0.013020833333333332,0,0)" xlink:href="#I"/><use transform="matrix(0.013020833333333332,0,0,0.013020833333333332,10.026041666666666,0)" xlink:href="#L"/><use transform="matrix(0.013020833333333332,0,0,0.013020833333333332,23.177083333333332,0)" xlink:href="#M"/><use transform="matrix(0.013020833333333332,0,0,0.013020833333333332,31.822916666666664,0)" xlink:href="#N"/><use transform="matrix(0.013020833333333332,0,0,0.013020833333333332,47.213541666666664,0)" xlink:href="#I"/><use transform="matrix(0.013020833333333332,0,0,0.013020833333333332,57.77343749999999,0)" xlink:href="#O"/></g><path fill="#3a414a" d="M223 0L98-1096h168c27 283 81 700 88 975h6c187-416 312-607 504-975h178L451 0H223" id="P"/><path fill="#3a414a" d="M225 0H57l332-1556h168" id="Q"/><g id="h"><use transform="matrix(0.013020833333333332,0,0,0.013020833333333332,0,0)" xlink:href="#P"/><use transform="matrix(0.013020833333333332,0,0,0.013020833333333332,12.317708333333332,0)" xlink:href="#H"/><use transform="matrix(0.013020833333333332,0,0,0.013020833333333332,27.382812499999996,0)" xlink:href="#Q"/><use transform="matrix(0.013020833333333332,0,0,0.013020833333333332,34.153645833333336,0)" xlink:href="#N"/><use transform="matrix(0.013020833333333332,0,0,0.013020833333333332,49.544270833333336,0)" xlink:href="#L"/></g><path fill="#3a414a" d="M786-1114c198 0 295 158 295 371 0 282-102 540-260 665-82 65-173 98-276 98-144 0-236-83-283-190h-10C229 23 215 37 123 492H-43l336-1588h139l-26 209h8c119-151 243-227 372-227zM319-346c-1 144 74 227 216 227 66 0 127-28 185-81 112-104 189-330 189-548 0-151-59-227-178-227-64 0-128 32-195 95-119 111-216 315-217 534" id="R"/><path fill="#3a414a" d="M508 16C253 16 98-150 98-406c0-259 115-505 270-614 84-58 174-90 275-90 253-2 410 166 410 422 0 258-113 503-267 613-83 59-175 91-278 91zM270-397c-1 168 83 278 246 274 171-4 265-133 316-281 31-90 47-192 47-307 0-147-88-262-232-258-174 5-277 132-329 279-32 88-48 186-48 293" id="S"/><path fill="#3a414a" d="M1503-838c-1-87-50-142-143-137-144 7-235 110-298 223-40 71-70 155-91 252L864 0H696l148-692c33-145 35-283-119-283-149 0-239 112-303 231C316-546 289-246 227 0H59l234-1096h139l-22 203h10c58-79 116-136 174-171s117-52 178-52c157 0 232 99 246 246h8c57-83 118-146 183-186s130-60 196-60c169 0 267 95 266 266 0 45-6 105-22 178L1505 0h-170l148-692c13-69 20-118 20-146" id="T"/><path fill="#3a414a" d="M227 0H59l234-1096h168zm205-1282c-54 0-92-37-92-94 0-71 46-128 115-127 59 0 88 30 88 90 0 66-50 132-111 131" id="U"/><path fill="#3a414a" d="M506-973c-111 0-197 55-199 156 0 37 13 68 35 96 39 50 254 158 300 206 52 54 93 108 93 204C735-85 557 20 313 20 200 20 99-3 8-49v-158c77 47 189 86 301 88 144 3 254-55 254-178 0-38-12-70-35-96s-73-62-151-107c-86-49-148-96-184-143s-54-102-54-166c-1-193 164-307 367-307 114 0 224 25 330 74l-54 137c-75-38-173-68-276-68" id="V"/><g id="i"><use transform="matrix(0.013020833333333332,0,0,0.013020833333333332,0,0)" xlink:href="#R"/><use transform="matrix(0.013020833333333332,0,0,0.013020833333333332,15.390624999999998,0)" xlink:href="#I"/><use transform="matrix(0.013020833333333332,0,0,0.013020833333333332,25.416666666666664,0)" xlink:href="#S"/><use transform="matrix(0.013020833333333332,0,0,0.013020833333333332,40.377604166666664,0)" xlink:href="#T"/><use transform="matrix(0.013020833333333332,0,0,0.013020833333333332,63.63281249999999,0)" xlink:href="#U"/><use transform="matrix(0.013020833333333332,0,0,0.013020833333333332,70.40364583333333,0)" xlink:href="#V"/><use transform="matrix(0.013020833333333332,0,0,0.013020833333333332,81.82291666666666,0)" xlink:href="#L"/></g><path fill="#3a414a" d="M958-145c122-335 154-375 406-951h178L1036 0H831c-14-307-41-606-36-930h-9C654-611 504-309 362 0H160l-43-1096h164c6 309 30 642 10 951h6c116-298 297-655 432-951h182c16 302 50 641 41 951h6" id="W"/><g id="j"><use transform="matrix(0.013020833333333332,0,0,0.013020833333333332,0,0)" xlink:href="#H"/><use transform="matrix(0.013020833333333332,0,0,0.013020833333333332,15.065104166666666,0)" xlink:href="#W"/><use transform="matrix(0.013020833333333332,0,0,0.013020833333333332,34.1796875,0)" xlink:href="#H"/><use transform="matrix(0.013020833333333332,0,0,0.013020833333333332,49.244791666666664,0)" xlink:href="#U"/><use transform="matrix(0.013020833333333332,0,0,0.013020833333333332,56.01562499999999,0)" xlink:href="#M"/></g><g id="k"><use transform="matrix(0.013020833333333332,0,0,0.013020833333333332,0,0)" xlink:href="#G"/><use transform="matrix(0.013020833333333332,0,0,0.013020833333333332,15.390624999999998,0)" xlink:href="#H"/><use transform="matrix(0.013020833333333332,0,0,0.013020833333333332,30.455729166666664,0)" xlink:href="#I"/><use transform="matrix(0.013020833333333332,0,0,0.013020833333333332,41.015625,0)" xlink:href="#J"/></g><use transform="matrix(0.013020833333333332,0,0,0.013020833333333332,0,0)" xlink:href="#K" id="l"/><path fill="#3a414a" d="M1079 0L973-348H440L334 0H0l516-1468h379L1413 0h-334zM899-608c-127-415-146-457-192-633-22 85-85 296-189 633h381" id="X"/><g id="m"><use transform="matrix(0.019531249999999993,0,0,0.019531249999999993,0,0)" xlink:href="#X"/><use transform="matrix(0.019531249999999993,0,0,0.019531249999999993,27.59765624999999,0)" xlink:href="#C"/><use transform="matrix(0.019531249999999993,0,0,0.019531249999999993,47.480468749999986,0)" xlink:href="#v"/><use transform="matrix(0.019531249999999993,0,0,0.019531249999999993,70.23437499999997,0)" xlink:href="#w"/><use transform="matrix(0.019531249999999993,0,0,0.019531249999999993,96.52343749999997,0)" xlink:href="#x"/><use transform="matrix(0.019531249999999993,0,0,0.019531249999999993,117.08984374999994,0)" xlink:href="#y"/><use transform="matrix(0.019531249999999993,0,0,0.019531249999999993,143.37890624999994,0)" xlink:href="#z"/><use transform="matrix(0.019531249999999993,0,0,0.019531249999999993,160.74218749999994,0)" xlink:href="#A"/><use transform="matrix(0.019531249999999993,0,0,0.019531249999999993,185.50781249999994,0)" xlink:href="#w"/><use transform="matrix(0.019531249999999993,0,0,0.019531249999999993,211.79687499999997,0)" xlink:href="#A"/><use transform="matrix(0.019531249999999993,0,0,0.019531249999999993,236.56249999999994,0)" xlink:href="#B"/><use transform="matrix(0.019531249999999993,0,0,0.019531249999999993,262.85156249999994,0)" xlink:href="#C"/></g></defs></g></svg>